<svg width="27" height="26" viewBox="0 0 27 26" fill="none" xmlns="http://www.w3.org/2000/svg">
<path fill-rule="evenodd" clip-rule="evenodd" d="M17.3334 0.666992C18.5805 0.666867 19.8026 1.01652 20.8608 1.67623C21.9191 2.33595 22.7711 3.27926 23.3201 4.39899L23.4454 4.66699H25.3334C25.5593 4.66698 25.7814 4.72435 25.9791 4.83371C26.1767 4.94308 26.3433 5.10086 26.4633 5.29225C26.5832 5.48363 26.6526 5.70236 26.6648 5.92789C26.6771 6.15343 26.6319 6.37839 26.5334 6.58166L26.4427 6.74033L24.3734 9.84299C24.2147 10.0816 24.1371 10.3649 24.1521 10.651L24.1707 10.8217L24.3587 11.8537C25.6774 19.1043 20.2147 25.7883 12.9014 25.995L12.5521 26.0003H1.3334C1.10753 26.0003 0.885363 25.943 0.687736 25.8336C0.490109 25.7242 0.323504 25.5665 0.203554 25.3751C0.0836034 25.1837 0.0142392 24.965 0.00196909 24.7394C-0.010301 24.5139 0.0349251 24.2889 0.133404 24.0857L0.224071 23.927L10.1507 9.03633C10.4872 8.53223 10.6668 7.93973 10.6667 7.33366C10.6667 5.56555 11.3691 3.86986 12.6194 2.61961C13.8696 1.36937 15.5653 0.666992 17.3334 0.666992ZM12.6667 12.667C12.3054 12.667 11.7827 12.7603 11.2854 12.9457C10.7854 13.1323 10.5094 13.339 10.4134 13.4497L5.9014 20.219C7.23207 19.8363 8.65474 19.415 9.9854 18.8937C11.4081 18.3377 12.6227 17.7043 13.4641 16.9657C14.2801 16.2497 14.6667 15.5097 14.6667 14.667C14.6667 14.1366 14.456 13.6279 14.081 13.2528C13.7059 12.8777 13.1972 12.667 12.6667 12.667ZM17.3334 6.00033C16.9798 6.00033 16.6406 6.1408 16.3906 6.39085C16.1405 6.6409 16.0001 6.98004 16.0001 7.33366C16.0001 7.68728 16.1405 8.02642 16.3906 8.27647C16.6406 8.52652 16.9798 8.66699 17.3334 8.66699C17.687 8.66699 18.0262 8.52652 18.2762 8.27647C18.5263 8.02642 18.6667 7.68728 18.6667 7.33366C18.6667 6.98004 18.5263 6.6409 18.2762 6.39085C18.0262 6.1408 17.687 6.00033 17.3334 6.00033Z" fill="#414141"/>
</svg>
