<svg width="53" height="55" viewBox="0 0 53 55" fill="none" xmlns="http://www.w3.org/2000/svg">
<rect width="53" height="55" rx="26.5" fill="#FF752D"/>
<g clip-path="url(#clip0_77_219)">
<path d="M40.6651 29.2225C41.1215 28.7655 41.3779 28.1459 41.3779 27.5C41.3779 26.8541 41.1215 26.2345 40.6651 25.7775L31.4741 16.5816C31.0168 16.1244 30.3966 15.8675 29.7499 15.8675C29.1033 15.8675 28.4831 16.1244 28.0258 16.5816C27.5686 17.0389 27.3117 17.6591 27.3117 18.3057C27.3117 18.9524 27.5686 19.5726 28.0258 20.0299L33.0568 25.0625H14.3125C13.666 25.0625 13.046 25.3193 12.5889 25.7764C12.1318 26.2335 11.875 26.8535 11.875 27.5C11.875 28.1465 12.1318 28.7664 12.5889 29.2236C13.046 29.6807 13.666 29.9375 14.3125 29.9375H33.0568L28.0258 34.9685C27.7994 35.1949 27.6198 35.4637 27.4973 35.7595C27.3747 36.0554 27.3117 36.3724 27.3117 36.6926C27.3117 37.0128 27.3747 37.3299 27.4973 37.6257C27.6198 37.9215 27.7994 38.1903 28.0258 38.4167C28.2522 38.6432 28.521 38.8228 28.8169 38.9453C29.1127 39.0678 29.4297 39.1309 29.7499 39.1309C30.0701 39.1309 30.3872 39.0678 30.683 38.9453C30.9789 38.8228 31.2477 38.6432 31.4741 38.4167L40.6651 29.2225Z" fill="white"/>
</g>
<defs>
<clipPath id="clip0_77_219">
<rect width="39" height="39" fill="white" transform="matrix(0 1 -1 0 46 8)"/>
</clipPath>
</defs>
</svg>
