<svg width="33" height="24" viewBox="0 0 33 24" fill="none" xmlns="http://www.w3.org/2000/svg">
<path d="M24.7917 0C22.2979 0 20.7812 0.48125 19.9062 0.889584C18.7833 0.335417 17.5 0 16.0417 0C14.5833 0 13.3 0.335417 12.1771 0.889584C11.3021 0.48125 9.78542 0 7.29167 0C2.91667 0 0 11.6667 0 14.5833C0 15.7938 1.925 16.9021 4.57917 17.3542C5.5125 20.6208 9.91667 23.1146 15.3125 23.3333V17.0917C14.4521 16.5521 13.125 15.575 13.125 14.5833C13.125 13.125 16.0417 13.125 16.0417 13.125C16.0417 13.125 18.9583 13.125 18.9583 14.5833C18.9583 15.575 17.6312 16.5521 16.7708 17.0917V23.3333C22.1667 23.1146 26.5708 20.6208 27.5042 17.3542C30.1583 16.9021 32.0833 15.7938 32.0833 14.5833C32.0833 11.6667 29.1667 0 24.7917 0ZM4.59375 14.3938C3.86458 14.2188 3.29583 14.0146 2.91667 13.8542C3.28125 9.81458 6.125 3.5 7.36458 2.91667C8.15208 2.91667 8.75 3.00417 9.28958 3.07708C6.22708 6.44583 5.01667 11.725 4.59375 14.3938ZM11.6667 11.6667C11.2799 11.6667 10.909 11.513 10.6355 11.2395C10.362 10.966 10.2083 10.5951 10.2083 10.2083C10.2083 9.42083 10.8646 8.75 11.6667 8.75C12.0534 8.75 12.4244 8.90365 12.6979 9.17714C12.9714 9.45063 13.125 9.82156 13.125 10.2083C13.125 11.025 12.4687 11.6667 11.6667 11.6667ZM20.4167 11.6667C20.0299 11.6667 19.659 11.513 19.3855 11.2395C19.112 10.966 18.9583 10.5951 18.9583 10.2083C18.9583 9.42083 19.6146 8.75 20.4167 8.75C20.8034 8.75 21.1744 8.90365 21.4479 9.17714C21.7214 9.45063 21.875 9.82156 21.875 10.2083C21.875 11.025 21.2187 11.6667 20.4167 11.6667ZM27.4896 14.3938C27.0667 11.725 25.8562 6.44583 22.7937 3.07708C23.3333 3.00417 23.9312 2.91667 24.7188 2.91667C25.9583 3.5 28.8021 9.81458 29.1667 13.8542C28.8021 14.0146 28.2333 14.2188 27.4896 14.3938Z" fill="#414141"/>
</svg>
