<svg width="25" height="25" viewBox="0 0 25 25" fill="none" xmlns="http://www.w3.org/2000/svg">
<path d="M25 8.07482C25 17.1916 13.4163 24.5709 12.923 24.8757C12.793 24.9573 12.6476 25 12.5 25C12.3524 25 12.207 24.9573 12.077 24.8757C11.5837 24.5709 0 17.1916 0 8.07482C0.00206779 5.93399 0.731764 3.88153 2.029 2.36773C3.32624 0.853926 5.08507 0.00241299 6.91964 0C9.22433 0 11.2422 1.15652 12.5 3.11141C13.7578 1.15652 15.7757 0 18.0804 0C19.9149 0.00241299 21.6738 0.853926 22.971 2.36773C24.2682 3.88153 24.9979 5.93399 25 8.07482Z" fill="#707070"/>
</svg>
