<svg width="35" height="30" viewBox="0 0 35 30" fill="none" xmlns="http://www.w3.org/2000/svg">
<path d="M27.2222 13.9484V9.37317H28.1944L28.7899 10.5214C29.5495 11.9918 31.3542 12.6538 32.9401 12.0445C34.1858 11.5641 35 10.4042 35 9.10955V4.68658C35 3.56766 34.4896 2.56005 33.6814 1.87463H34.0278C34.5625 1.87463 35 1.45284 35 0.937317C35 0.421793 34.5625 0 34.0278 0H27.2222C22.9262 0 19.4444 3.35677 19.4444 7.49854H9.04167C7.17622 7.49854 5.54167 8.45343 4.63628 9.88869C2.01736 10.2226 0 12.3843 0 14.9971V18.2777C0 19.0568 0.650174 19.6837 1.45833 19.6837C2.26649 19.6837 2.91667 19.0568 2.91667 18.2777V14.9971C2.91667 14.2121 3.31771 13.5208 3.93142 13.0931C4.02865 13.8547 4.31424 14.5811 4.75781 15.2255L6.47135 17.7094C6.97569 18.4359 6.86024 19.3907 6.39844 20.1465C5.39583 21.7868 5.1467 23.7903 5.7908 25.6473L6.85417 28.7171C7.12153 29.4845 7.86285 30 8.70139 30H10.7491C12.0738 30 13.0156 28.7463 12.5964 27.5337L11.3325 23.8723C11.2049 23.4974 11.3021 23.0873 11.5938 22.8061L12.3655 22.0621C13.1675 21.2888 13.6172 20.2402 13.6172 19.1506C13.6172 19.0158 13.6111 18.8811 13.599 18.7463L18.7031 20.1523C18.9523 20.2226 19.2014 20.2753 19.4505 20.3163L19.4444 28.1195C19.4444 29.1564 20.3134 29.9941 21.3889 29.9941H23.3333C24.4089 29.9941 25.2778 29.1564 25.2778 28.1195V18.4944C26.4444 17.3697 27.1918 15.8172 27.2222 14.0598V13.9484ZM30.1389 3.74927C30.3967 3.74927 30.644 3.84802 30.8264 4.0238C31.0087 4.19958 31.1111 4.43799 31.1111 4.68658C31.1111 4.93518 31.0087 5.17359 30.8264 5.34937C30.644 5.52515 30.3967 5.6239 30.1389 5.6239C29.881 5.6239 29.6337 5.52515 29.4514 5.34937C29.2691 5.17359 29.1667 4.93518 29.1667 4.68658C29.1667 4.43799 29.2691 4.19958 29.4514 4.0238C29.6337 3.84802 29.881 3.74927 30.1389 3.74927Z" fill="#414141"/>
</svg>
