<svg width="23" height="34" viewBox="0 0 23 34" fill="none" xmlns="http://www.w3.org/2000/svg">
<path d="M22.9844 12.125C22.9846 9.92361 22.3521 7.76855 21.1622 5.91644C19.9724 4.06433 18.2753 2.59322 16.273 1.67831C14.2707 0.763391 12.0477 0.443223 9.86865 0.755929C7.68959 1.06863 5.64631 2.00104 3.98215 3.4421C2.31798 4.88316 1.10306 6.77216 0.482053 8.88414C-0.138952 10.9961 -0.139868 13.2421 0.479413 15.3546C1.09869 17.467 2.31208 19.357 3.97506 20.7995C5.63805 22.2419 7.68057 23.1759 9.85938 23.4904V25.7969H6.03125C5.59613 25.7969 5.17883 25.9697 4.87115 26.2774C4.56348 26.5851 4.39063 27.0024 4.39062 27.4375C4.39063 27.8726 4.56348 28.2899 4.87115 28.5976C5.17883 28.9053 5.59613 29.0781 6.03125 29.0781H9.85938V31.8125C9.85938 32.2476 10.0322 32.6649 10.3399 32.9726C10.6476 33.2803 11.0649 33.4531 11.5 33.4531C11.9351 33.4531 12.3524 33.2803 12.6601 32.9726C12.9678 32.6649 13.1406 32.2476 13.1406 31.8125V29.0781H16.9688C17.4039 29.0781 17.8212 28.9053 18.1288 28.5976C18.4365 28.2899 18.6094 27.8726 18.6094 27.4375C18.6094 27.0024 18.4365 26.5851 18.1288 26.2774C17.8212 25.9697 17.4039 25.7969 16.9688 25.7969H13.1406V23.4904C15.8723 23.0927 18.3698 21.7257 20.177 19.6391C21.9842 17.5525 22.9807 14.8855 22.9844 12.125ZM3.29688 12.125C3.29688 10.5026 3.77798 8.91659 4.67935 7.56759C5.58072 6.21859 6.86187 5.16718 8.3608 4.5463C9.85973 3.92543 11.5091 3.76298 13.1003 4.0795C14.6916 4.39602 16.1533 5.17729 17.3005 6.32452C18.4477 7.47174 19.229 8.9334 19.5455 10.5247C19.862 12.1159 19.6996 13.7653 19.0787 15.2642C18.4578 16.7631 17.4064 18.0443 16.0574 18.9457C14.7084 19.847 13.1224 20.3281 11.5 20.3281C9.32517 20.3256 7.24015 19.4605 5.70231 17.9227C4.16448 16.3849 3.29941 14.2998 3.29688 12.125Z" fill="#707070"/>
</svg>
