<svg xmlns="http://www.w3.org/2000/svg" fill="none" viewBox="0 0 48 48" id="Fish--Streamline-Ionic-Filled.svg" height="48" width="48"><desc>Fish Streamline Icon: https://streamlinehq.com</desc><g clip-path="url(#a)"><path fill="#414141" d="M47.9987 23.9995c0 -1.5506 -1.3378 -4.3837 -4.2758 -6.9374 -1.6771 -1.4424 -3.5884 -2.5877 -5.6512 -3.3862 -0.0686 -0.0256 -0.1443 -0.0249 -0.2124 0.0021s-0.1237 0.0784 -0.156 0.1441c-0.0141 0.0272 -0.0282 0.0535 -0.0441 0.0807l-0.8991 1.4906c-1.5162 2.6181 -2.314 5.5901 -2.3128 8.6155 0.0012 3.0253 0.8012 5.9967 2.3194 8.6136l0.0216 0.0366 0.8193 1.4999c0.0435 0.0797 0.1144 0.141 0.1995 0.1724 0.0852 0.0313 0.1789 0.0307 0.2636 -0.0017 6.8934 -2.6972 9.928 -7.9405 9.928 -10.3302Zm-8.8048 -0.0131c-0.3107 0.0407 -0.6263 -0.017 -0.9025 -0.1649 -0.2762 -0.1479 -0.4992 -0.3785 -0.6376 -0.6596 -0.1385 -0.281 -0.1855 -0.5984 -0.1344 -0.9074 0.0511 -0.3091 0.1977 -0.5945 0.4193 -0.816 0.2215 -0.2216 0.5069 -0.3682 0.8159 -0.4193 0.3092 -0.0511 0.6266 -0.0041 0.9076 0.1343 0.281 0.1384 0.5117 0.3615 0.6595 0.6377 0.1479 0.2761 0.2055 0.5918 0.165 0.9024 -0.0429 0.3278 -0.1929 0.6323 -0.4267 0.8661 -0.2338 0.2338 -0.5383 0.3838 -0.8661 0.4267Z" stroke-width="1"></path><path fill="#414141" d="M31.4476 23.999c-0.0013 -3.5566 0.9393 -7.0499 2.7262 -10.1249l0.0112 -0.0197 0.4331 -0.719c0.0314 -0.0513 0.0499 -0.1093 0.0541 -0.1692 0.0043 -0.0599 -0.006 -0.1199 -0.0297 -0.175 -0.0238 -0.0551 -0.0605 -0.1038 -0.107 -0.1417 -0.0464 -0.038 -0.1014 -0.0644 -0.1602 -0.0766 -1.2135 -0.2539 -2.4434 -0.4228 -3.6805 -0.5053 -0.1459 -0.0095 -0.2858 -0.0616 -0.4022 -0.15 -1.8075 -1.3744 -5.3906 -3.77816 -9.043 -4.39596 -0.2496 -0.04135 -0.5056 -0.01891 -0.7442 0.06525 -0.2386 0.08416 -0.452 0.22729 -0.6203 0.41609 -0.1685 0.1888 -0.2864 0.41714 -0.3429 0.66375 -0.0564 0.24662 -0.0496 0.5035 0.0199 0.7468l0.9956 3.48467c0.0259 0.0902 0.017 0.187 -0.025 0.271 -0.042 0.084 -0.114 0.1492 -0.2019 0.1827 -3.4546 1.2834 -6.4302 3.6328 -8.6005 5.4234 -0.1328 0.1086 -0.2988 0.1685 -0.4705 0.1696 -0.1717 0.001 -0.3384 -0.0569 -0.4726 -0.164 -0.2949 -0.2344 -0.5977 -0.4654 -0.90842 -0.6928 -3.71617 -2.714 -8.08205 -3.0712 -8.2658 -3.0843 -0.23329 -0.0177 -0.46747 0.0195 -0.683835 0.1085 -0.216357 0.0891 -0.408887 0.2275 -0.562202 0.4042 -0.153315 0.1767 -0.263164 0.3869 -0.3207677 0.6137 -0.057604 0.2267 -0.0613655 0.4638 -0.0109838 0.6923 0.0393745 0.1809 0.8615515 3.8146 2.9718385 6.7133 0.09499 0.13 0.1462 0.2867 0.1462 0.4477 0 0.1609 -0.05121 0.3177 -0.1462 0.4476C0.896743 27.3289 0.074566 30.9636 0.0351915 31.1445c-0.0503817 0.2285 -0.0466202 0.4655 0.0109838 0.6922 0.0576037 0.2268 0.1674527 0.437 0.3207677 0.6137 0.153315 0.1767 0.345845 0.3151 0.562202 0.4042 0.216365 0.089 0.450545 0.1262 0.683835 0.1086 0.1875 -0.0131 4.54963 -0.375 8.26112 -3.0824 0.3032 -0.2226 0.5991 -0.4482 0.8878 -0.6769 0.1342 -0.1071 0.3011 -0.1647 0.4728 -0.1636 0.1716 0.0012 0.3377 0.0613 0.4703 0.1701 2.1797 1.7991 5.1609 4.1512 8.6249 5.4375 0.0876 0.0334 0.1595 0.0984 0.2015 0.1822 0.042 0.0838 0.0511 0.1804 0.0254 0.2706l-0.9994 3.4856c-0.0695 0.2431 -0.0763 0.5001 -0.0199 0.7467 0.0565 0.2466 0.1744 0.4749 0.3429 0.6637 0.1683 0.1888 0.3817 0.332 0.6203 0.4162 0.2386 0.0841 0.4946 0.1066 0.7442 0.0652 1.6087 -0.2719 4.8637 -1.2056 9.0046 -4.3902 0.1183 -0.0903 0.2603 -0.1441 0.4087 -0.1547 1.2356 -0.081 2.4641 -0.247 3.6768 -0.4969 0.0573 -0.0121 0.1109 -0.0373 0.1567 -0.0737 0.0457 -0.0364 0.0823 -0.0831 0.1068 -0.1362 0.0245 -0.0532 0.0362 -0.1113 0.0343 -0.1697 -0.0019 -0.0585 -0.0176 -0.1157 -0.0456 -0.1669l-0.4228 -0.7772c-1.7816 -3.0727 -2.7189 -6.5619 -2.7168 -10.1136Z" stroke-width="1"></path></g><defs><clipPath id="a"><path fill="#414141" d="M0 0h47.999v47.999H0z" stroke-width="1"></path></clipPath></defs></svg>