<svg width="32" height="22" viewBox="0 0 32 22" fill="none" xmlns="http://www.w3.org/2000/svg">
<path fill-rule="evenodd" clip-rule="evenodd" d="M15.6771 2.05042C13.5188 2.05042 13.303 2.27938 12.1859 2.27938C11.2555 2.27938 8.4613 0 7.06568 0C5.67005 0 4.03964 0.821042 4.03964 3.19083V5.92521C4.04255 6.64271 4.30214 8.84188 5.32297 8.25417C4.11693 9.68042 3.99589 11.3444 4.01193 12.9544C3.68672 13.0477 3.35568 13.1542 3.03339 13.2635C2.03589 13.6048 0.977135 14.0394 0.50026 14.3485C0.256593 14.506 0.0854385 14.7537 0.0244501 15.0373C-0.0365383 15.3209 0.0176347 15.6172 0.175052 15.8608C0.332469 16.1045 0.580235 16.2757 0.863845 16.3366C1.14745 16.3976 1.44368 16.3435 1.68734 16.186C1.91484 16.0388 2.7388 15.6756 3.74068 15.3329L4.07318 15.2235C4.14026 15.855 4.30797 16.434 4.55734 16.959L4.52234 16.9779C3.92443 17.2929 3.37026 17.656 3.01734 17.8865L2.85255 17.9944C2.60888 18.1518 2.43773 18.3996 2.37674 18.6832C2.31575 18.9668 2.36993 19.263 2.52734 19.5067C2.68476 19.7503 2.93253 19.9215 3.21614 19.9825C3.49975 20.0435 3.79597 19.9893 4.03964 19.8319L4.23068 19.7065C4.58797 19.4731 5.04589 19.1742 5.54464 18.9117C5.6613 18.8494 5.77359 18.7931 5.88151 18.7425C8.40443 21.1094 12.9355 21.875 15.6771 21.875C18.4188 21.875 22.9498 21.1094 25.4728 18.7425C25.5797 18.7931 25.692 18.8494 25.8096 18.9117C26.3084 19.1742 26.7663 19.4731 27.1236 19.7065L27.3146 19.8319C27.5583 19.9893 27.8545 20.0435 28.1381 19.9825C28.4217 19.9215 28.6695 19.7503 28.8269 19.5067C28.9843 19.263 29.0385 18.9668 28.9775 18.6832C28.9165 18.3996 28.7454 18.1518 28.5017 17.9944L28.3369 17.8865C27.8496 17.5605 27.3474 17.2573 26.8319 16.9779L26.7969 16.959C27.0463 16.434 27.214 15.855 27.2811 15.2235L27.6136 15.3329C28.6155 15.6756 29.4394 16.0388 29.6684 16.186C29.9119 16.3346 30.2039 16.3822 30.482 16.3185C30.7601 16.2549 31.0024 16.0851 31.1571 15.8453C31.3117 15.6056 31.3666 15.3149 31.31 15.0353C31.2534 14.7557 31.0898 14.5092 30.854 14.3485C30.3771 14.0394 29.3184 13.6048 28.3223 13.2635C27.998 13.1528 27.6713 13.0492 27.3423 12.9529C27.3598 11.3429 27.2373 9.68042 26.0298 8.25417C27.0507 8.84188 27.3132 6.64271 27.3146 5.92375V3.19083C27.3146 0.821042 25.6857 0 24.2886 0C22.893 0 20.0988 2.27938 19.1698 2.27938C18.0513 2.27938 17.8355 2.05042 15.6771 2.05042ZM14.6928 15.4583C14.9873 15.3577 15.3359 15.3125 15.6771 15.3125C16.0184 15.3125 16.3669 15.3577 16.663 15.4583C16.8088 15.5079 16.9838 15.5867 17.1413 15.7121C17.2492 15.7936 17.3375 15.8983 17.3995 16.0184C17.4616 16.1385 17.496 16.2711 17.5001 16.4062C17.5001 16.7417 17.2973 16.975 17.1413 17.1004C16.9853 17.2258 16.8073 17.3046 16.663 17.3542C16.3669 17.4548 16.0184 17.5 15.6771 17.5C15.3359 17.5 14.9873 17.4548 14.6928 17.3542C14.5196 17.2974 14.3573 17.2116 14.213 17.1004C14.1051 17.0189 14.0168 16.9142 13.9547 16.7941C13.8926 16.674 13.8583 16.5414 13.8542 16.4062C13.8542 16.0708 14.0569 15.8375 14.213 15.7121C14.369 15.5867 14.5484 15.5079 14.6928 15.4583ZM18.8417 10.9375C19.0415 10.605 19.4338 10.2083 20.023 10.2083C20.6121 10.2083 21.0059 10.605 21.2042 10.9375C21.4113 11.286 21.5105 11.706 21.5105 12.1231C21.5105 12.5402 21.4113 12.9587 21.2042 13.3058C21.0059 13.6398 20.6121 14.0365 20.023 14.0365C19.4338 14.0365 19.0415 13.6398 18.8417 13.3073C18.6362 12.9468 18.5304 12.5381 18.5355 12.1231C18.5355 11.706 18.6346 11.286 18.8417 10.939M10.1501 10.939C10.3498 10.6065 10.7421 10.2098 11.3313 10.2098C11.9205 10.2098 12.3142 10.6065 12.5126 10.939C12.7196 11.2875 12.8188 11.7075 12.8188 12.1246C12.8188 12.5417 12.7196 12.9602 12.5126 13.3073C12.3142 13.6413 11.9205 14.0379 11.3313 14.0379C10.7421 14.0379 10.3498 13.6413 10.1501 13.3088C9.94449 12.9483 9.83877 12.5395 9.8438 12.1246C9.8438 11.7075 9.94297 11.286 10.1501 10.939Z" fill="#414141"/>
</svg>
