<svg width="180" height="180" viewBox="0 0 180 180" fill="none" xmlns="http://www.w3.org/2000/svg">
<g clip-path="url(#clip0_231_270)">
<path d="M180 0H0V180H180V0Z" fill="#FF752D"/>
<path d="M44.2157 159.346C34.2208 159.275 23.6001 160.654 15.261 154.139C11.7489 151.369 9.30553 146.218 11.9423 142.045C12.5223 142.467 13.243 142.78 13.6544 143.329C20.9493 153.007 32.8778 152.515 40.7001 148.222C41.8637 147.586 42.3208 146.837 42.145 145.431C40.2008 119.735 59.8391 96.8941 77.2907 80.1598C80.4477 77.4598 83.7805 74.5629 85.3907 70.6676C92.9915 52.077 98.859 62.0086 100.74 36.8297C102.934 38.7668 104.909 40.5457 106.92 42.2789C109.923 44.9543 113.621 47.8301 116.996 43.9277C119.102 41.6672 119.984 38.7914 120.093 35.877C120.35 29.0918 120.262 22.2961 120.308 15.5039C120.308 15.4231 120.199 15.3422 119.675 15.2016C119.316 18.1793 118.87 21.1465 118.617 24.1348C118.009 30.1043 118.835 36.566 115.6 41.9133C114.345 44.0719 112.827 44.3953 110.854 42.7606C104.86 37.2481 88.843 27.6785 98.62 18.9668C100.891 16.9664 103.665 15.5145 106.115 13.7883C113.582 7.02774 125.381 8.70118 134.195 11.5559C138.266 13.1906 141.416 15.9082 143.532 19.7121C145.381 22.5633 143.511 26.1281 147.231 27.6363C150.236 29.0742 153.239 30.5121 156.564 32.1047C154.501 32.0027 153.429 32.5969 151.913 33.7043C152.398 34.4074 152.88 35.107 153.309 35.7293C154.958 34.5305 156.287 33.5602 157.742 32.5055C159.293 33.0293 159.549 34.3055 159.117 35.8066C158.47 38.0531 157.806 40.2996 157.011 42.5004C156.336 44.3707 155.007 45.4922 153.309 46.7473C150.022 49.1766 146.742 49.2434 143.04 49.0746C139.707 49.1836 134.216 50.2102 134.202 54.4711C134.188 58.0781 134.244 61.7309 134.792 65.2817C137.116 77.9274 142.502 88.091 134.873 100.297C127.937 111.762 129.336 125.469 128.805 138.291C128.837 143.367 129.371 148.454 131.473 153.229C134.268 159.82 140.365 154.73 143.49 162.411C146.675 169.509 130.155 166.908 126.777 166.057C126.351 165.959 125.986 165.438 125.669 165.055C123.802 162.562 121.176 160.239 120.16 157.264C119.478 153.949 119.053 150.62 117.443 147.512C116.74 146.155 116.912 144.33 116.747 142.713C116.163 137.021 115.604 131.33 115.034 125.638C114.774 125.561 114.518 125.487 114.257 125.409C113.772 126.229 113.287 127.051 112.798 127.87L112.162 127.42C111.34 118.508 113.34 110.007 117.415 102.076C118.708 99.559 119.482 96.7781 120.266 94.057C117.794 98.3883 115.266 102.691 112.865 107.061C107.233 119.067 110.756 140.699 113.192 153.65C114.845 162.359 121.665 159.079 124.108 166.493C124.903 168.894 124.281 170.518 121.823 170.824C116.413 171.13 103.106 172.853 102.301 165.319C101.763 161.325 100.543 157.588 98.7676 153.984C96.2962 143.167 95.702 131.825 94.0497 120.821C93.1743 114.578 93.3676 108.197 91.9544 102.027C88.9942 115.703 93.7614 129.442 95.2204 143.047C95.4172 144.313 95.2731 145.35 94.3309 146.243C92.1829 148.279 90.0454 150.325 87.8411 152.423C90.0032 152.325 92.1407 152.286 94.2641 152.107C95.463 152.005 95.9727 152.36 96.3524 153.57C97.2313 156.389 98.6481 158.702 99.4672 161.606C96.1661 161.445 93.0512 161.311 89.9364 161.114C89.5919 161.093 89.1946 160.766 88.9555 160.471C85.1797 155.985 80.0012 156.498 74.4852 155.96C96.929 144.671 80.0821 108.967 55.9649 121.792C71.2016 118.993 80.2579 124.042 81.6606 140.122C82.1493 147.417 78.9465 152.234 72.0454 154.68C68.7688 156.045 64.884 155.936 61.7692 157.588C68.1747 157.525 74.6223 157.648 80.9891 158.305C84.6383 158.734 87.4227 160.72 88.8184 164.292C89.7571 166.697 89.068 168.504 86.5403 168.989C84.0477 169.467 81.411 169.622 78.8762 169.407C69.602 168.63 60.3419 167.639 51.0782 166.729C45.3337 166.264 44.5848 164.999 44.2087 159.356L44.2157 159.346ZM124.745 105.511C130.067 99.3832 133.491 87.8273 131.8 82.7156C129.536 90.0281 127.132 97.8047 124.745 105.511ZM121.443 168.933C122.147 165.146 120.48 162.492 116.884 162.204C119.756 163.839 120.818 166.222 121.443 168.933ZM82.8243 160.256C83.9739 161.87 85.3485 163.804 86.5403 165.473C86.5473 162.355 85.2501 160.625 82.8243 160.256ZM114.198 167.252C114.272 165.002 113.336 163.772 111.529 163.635C112.394 164.809 113.312 166.05 114.198 167.252ZM138.209 158.931C139.334 160.256 140.326 161.423 141.44 162.738C141.215 160.685 140.277 159.483 138.209 158.931Z" fill="white"/>
<path opacity="0.29" d="M30.5859 69.4582C31.173 67.4402 31.7602 65.4258 33.0223 63.6855C35.7996 59.8535 39.5402 57.9129 44.2793 57.9129C49.9535 57.9129 55.6277 57.8918 61.3055 57.934C62.202 57.941 62.5395 57.7863 62.6098 56.7844C62.9543 51.968 66.941 47.3203 73.3887 47.3273C84.3926 47.3414 95.393 47.2922 106.397 47.3484C111.73 47.3766 115.495 50.3156 116.866 55.2691C116.926 55.4906 116.982 55.7156 117.011 55.9441C117.168 57.2566 117.889 57.9129 119.176 57.9129C124.657 57.9129 130.141 57.8848 135.622 57.9199C142.095 57.9656 147.393 62.1176 148.876 68.2453C149.157 69.4125 149.224 70.6043 149.224 71.8031C149.217 90.1406 149.136 108.478 149.263 126.816C149.309 133.464 144.113 140.868 135.496 140.713C132.216 140.653 128.932 140.706 125.652 140.706C98.7047 140.706 71.7609 140.688 44.8137 140.72C39.9094 140.727 35.993 138.888 33.0187 135.007C31.7039 133.295 31.152 131.263 30.593 129.234V69.4547L30.5859 69.4582Z" fill="black"/>
<path d="M89.8172 134.743C74.7563 134.743 59.6953 134.74 44.6379 134.747C41.407 134.747 38.8652 133.573 37.3254 130.612C36.7629 129.53 36.5766 128.359 36.5766 127.146C36.5801 108.612 36.566 90.0738 36.5871 71.5395C36.5906 67.0008 39.6914 63.9316 44.2442 63.9141C51.1559 63.8859 58.0676 63.907 64.9793 63.907C67.5422 63.907 68.6777 62.7504 68.7024 60.1594C68.7129 59.0801 68.6848 57.9938 68.7938 56.9215C68.9941 54.9211 70.5164 53.4656 72.5063 53.2512C72.6223 53.2371 72.7383 53.2336 72.8543 53.2336C84.2449 53.2336 95.6356 53.216 107.03 53.2477C109.399 53.2547 111.066 54.9668 111.196 57.3469C111.255 58.4262 111.206 59.509 111.22 60.5883C111.245 62.6379 112.489 63.9 114.546 63.9035C121.574 63.9141 128.602 63.8965 135.629 63.9141C139.356 63.9246 142.116 65.9531 143.065 69.3316C143.318 70.2281 143.371 71.1527 143.371 72.0809C143.371 90.1547 143.385 108.225 143.36 126.299C143.353 130.679 141.363 133.429 137.753 134.466C136.863 134.722 135.928 134.754 135 134.75C119.939 134.747 104.878 134.75 89.8207 134.75L89.8172 134.743Z" fill="white"/>
<path opacity="0.28" d="M117.647 99.4922C117.394 115.277 104.833 127.086 89.8176 127.034C73.948 126.977 62.0477 114.188 62.1848 99.0949C62.3289 83.1762 75.1926 71.427 90.1516 71.6098C105.902 71.8031 117.584 84.3539 117.647 99.4922Z" fill="black"/>
<path opacity="0.28" d="M129.993 82.4801C126.966 82.4625 124.477 79.9453 124.523 76.9395C124.569 73.8984 127.058 71.4691 130.095 71.4973C133.147 71.5254 135.576 73.9934 135.552 77.0414C135.527 80.0824 133.063 82.4941 129.993 82.4801Z" fill="black"/>
<path d="M111.527 99.5027C111.555 111.428 101.82 121.131 89.8739 121.092C77.8961 121.054 68.2528 111.375 68.2774 99.4219C68.3055 87.409 77.9032 77.7937 89.8809 77.7902C101.929 77.7832 111.498 87.3844 111.527 99.5027Z" fill="white"/>
</g>
<defs>
<clipPath id="clip0_231_270">
<rect width="180" height="180" fill="white"/>
</clipPath>
</defs>
</svg>
