<svg width="342" height="282" viewBox="0 0 342 282" fill="none" xmlns="http://www.w3.org/2000/svg">
<path d="M193.054 17.2357C189.666 22.3516 188.331 28.0581 188.199 34.075C188.082 39.301 187.046 44.3768 185.766 49.4176C184.562 54.158 185.004 58.9686 185.268 63.759C185.4 66.1518 185.786 68.5345 185.969 70.9273C186.218 74.0959 184.897 76.0581 181.683 77.1394C177.884 78.4158 174.064 79.6222 170.398 81.2441C150.936 89.864 137.914 104.301 130.672 123.958C130.093 125.53 129.514 127.102 128.874 128.653C128.447 129.69 127.894 130.676 127.056 131.462C126.553 131.932 125.979 132.388 125.248 132.172C124.425 131.932 124.237 131.186 124.176 130.435C123.861 126.666 124.506 122.982 125.258 119.313C125.375 118.747 125.898 118.081 125.217 117.621C124.511 117.145 123.897 117.766 123.384 118.121C120.494 120.119 119.143 123.122 118.097 126.286C117.269 128.794 117.299 128.819 115.263 127.207C105.446 119.438 96.3953 110.938 89.2851 100.601C79.5237 86.42 74.9732 70.7671 76.253 53.6675C77.4872 37.2186 83.6782 22.9323 97.0048 12.4002C107.056 4.46108 118.615 0.0960749 131.611 0.000965925C141.535 -0.0691144 150.159 3.68018 158.056 9.29161C166.619 15.3736 173.181 23.2326 178.706 31.9976C179.026 32.5082 179.235 33.1139 179.864 33.5044C183.755 27.6577 187.65 21.831 192.759 16.9304C192.856 17.0305 192.957 17.1306 193.054 17.2307V17.2357ZM118.346 52.7014C112.596 59.7444 107.086 66.5022 101.535 73.31C102.627 73.7505 103.277 73.2549 103.963 72.8695C109.864 69.5557 115.771 66.2569 121.667 62.9331C122.916 62.2323 124.201 61.8068 125.669 61.7067C132.927 61.2161 137.208 57.9324 139.499 51.0845C140.296 48.7018 141.048 46.3141 142.16 44.0414C143.973 40.3222 146.599 37.5991 150.86 36.7231C151.022 36.688 151.332 36.703 151.266 36.3026C148.904 34.946 146.609 33.4143 144.308 31.8925C141.408 29.9703 138.782 30.1205 135.954 32.1528C134.664 33.0789 133.551 34.2052 132.647 35.5017C131.987 36.4578 131.169 36.7431 130.017 36.4778C123.358 34.951 116.69 33.4593 110.022 31.9726C107.756 31.467 105.476 31.0215 103.048 30.5159C105.593 37.9394 110.428 42.5948 117.944 44.6221C113.099 45.6183 108.249 46.6094 103.099 47.6706C107.594 51.475 112.581 52.6013 118.335 52.7064L118.346 52.7014Z" fill="#FF752D"/>
<path d="M192.901 16.6458C202.226 7.13487 213.409 1.03788 226.893 0.141855C248.366 -1.28478 264.171 8.17606 274.811 26.1517C281.343 37.1843 284.308 49.3232 283.877 62.1279C283.445 74.9676 279.016 86.5709 272.175 97.3833C263.882 110.493 252.744 120.915 240.388 130.191C235.019 134.221 229.636 138.22 224.252 142.235C223.191 143.026 220.53 143.151 219.443 142.51C218.95 142.22 219.026 141.759 218.94 141.339C217.523 134.536 216.817 127.648 216.619 120.72C216.406 113.176 216.365 105.628 217.279 98.1141C217.838 93.5539 218.605 89.0538 220.794 84.919C222.988 80.7592 226.436 78.6468 231.205 78.6518C233.816 78.6518 236.426 78.7269 239.032 78.6018C243.125 78.4015 245.223 76.3192 245.563 72.3596C245.761 70.052 246.513 67.8845 247.376 65.757C248.696 62.4983 248.625 59.1995 247.564 55.9208C246.68 53.1927 244.994 52.0513 242.084 52.1014C240.327 52.1314 238.569 52.3867 236.822 52.3217C234.024 52.2165 231.551 51.0652 229.275 49.5385C226.045 47.371 222.932 45.0383 219.676 42.9159C215.573 40.2378 211.017 38.7811 206.086 38.631C205.05 38.6009 204.831 38.2706 204.659 37.3245C203.465 30.9021 201.479 24.7601 197.259 19.5791C196.248 18.3427 195.182 16.876 193.196 16.9611C193.099 16.861 192.998 16.7609 192.901 16.6608V16.6458Z" fill="#FF752D"/>
<path d="M184.806 82.9611C184.603 85.3838 184.42 87.7115 184.415 90.0492C184.415 91.5909 185.045 92.5971 186.37 93.2829C187.223 93.7234 188.066 94.1789 188.909 94.6344C191.825 96.1962 193.897 98.4688 194.872 101.627C195.603 104 196.563 106.243 198.325 108.075C198.833 108.6 198.945 109.261 198.808 109.952C197.797 114.983 195.684 119.148 188.503 119.148C186.969 119.148 185.441 119.138 183.937 118.802C183.018 118.597 182.454 118.812 182.205 119.808C180.926 124.974 179.94 130.175 180.21 135.526C180.387 139.02 180.225 142.549 181.21 145.978C181.515 147.045 181.87 148.146 183.099 148.311C185.852 148.681 187.452 150.498 188.513 152.681C189.59 154.899 191.017 155.549 193.475 155.389C197.543 155.124 201.637 155.299 205.72 155.294C206.091 155.294 206.467 155.339 207.051 155.379C206.482 156.225 205.796 156.6 205.207 157.076C196.568 163.989 188.178 171.162 181.215 179.797C180.27 180.968 179.417 180.938 178.28 179.702C176.604 177.88 175.004 175.993 173.308 174.191C163.15 163.413 151.484 154.358 139.58 145.578C135.948 142.9 132.363 140.162 128.706 137.514C127.792 136.853 127.761 136.357 128.411 135.506C130.89 132.273 134.049 129.87 137.655 128.008C143.739 124.864 150.113 122.431 156.756 120.719C159.818 119.928 161.865 118.262 162.678 115.168C163.993 110.167 166.04 105.462 168.93 101.137C170.413 98.9193 172.261 97.0372 174.572 95.6506C175.964 94.8146 176.771 93.6633 177.066 92.0615C177.548 89.3884 178.412 86.8806 180.535 84.9533C181.738 83.8621 183.094 83.2063 184.816 82.951L184.806 82.9611ZM155.898 136.718C159.823 137.809 161.845 140.477 162.515 144.246C162.708 145.333 162.713 146.474 162.632 147.58C162.536 148.817 162.805 149.287 164.237 149.327C168.239 149.432 171.352 150.999 172.637 155.069C172.647 155.109 172.82 155.099 172.947 155.119C173.363 154.448 173.211 153.727 173.079 153.026C172.459 149.793 169.89 147.61 165.948 147.145C164.933 147.024 164.603 146.694 164.516 145.763C164.349 143.966 163.826 142.249 162.84 140.722C161.235 138.229 159.021 136.703 155.908 136.718H155.898Z" fill="#FF752D"/>
<path d="M225.309 204.716V202.929C225.309 196.666 225.309 190.399 225.309 184.137C225.309 180.668 226.761 179.221 230.225 179.211C231.358 179.211 232.495 179.196 233.628 179.211C236.167 179.251 237.742 180.748 237.899 183.256C237.919 183.591 237.904 183.927 237.904 184.262C237.904 203.614 237.904 222.967 237.914 242.314C237.914 243.865 237.797 245.342 236.528 246.463C234.953 247.85 228.188 247.815 226.639 246.408C225.761 245.607 225.329 244.601 225.314 243.425C225.304 242.719 225.314 242.018 225.314 240.942C222.937 243.785 220.464 245.948 217.356 247.299C208.808 251.014 197.96 248.556 190.845 241.298C177.132 227.317 183.424 203.009 202.19 197.878C210.916 195.49 218.722 197.072 224.755 204.295C224.847 204.405 224.989 204.475 225.309 204.711V204.716ZM225.309 222.866C225.294 215.283 218.95 209.286 210.855 209.201C202.602 209.116 195.994 215.288 196.03 223.052C196.06 230.63 202.571 236.597 210.794 236.577C219.006 236.557 225.324 230.59 225.314 222.866H225.309Z" fill="#FF752D"/>
<path d="M38.0202 213.195C37.6647 196.852 50.4276 180.333 69.7014 177.985C80.5343 176.663 90.1281 179.692 98.1728 187.085C101.073 189.748 100.839 192.817 97.67 195.155C96.7152 195.86 95.7452 196.541 94.7751 197.217C92.8604 198.559 91.347 198.453 89.6151 196.872C81.4637 189.443 69.4728 188.777 60.5393 195.26C52.8755 200.821 49.5286 210.377 52.0883 219.387C54.6429 228.388 62.713 234.92 72.2103 235.671C78.9091 236.202 84.7192 234.179 89.671 229.734C91.5146 228.082 92.7842 227.997 94.7802 229.429C95.8366 230.185 96.9082 230.916 97.9493 231.692C100.717 233.749 100.981 236.812 98.4826 239.17C90.8391 246.368 81.7126 249.617 71.1691 248.726C55.8466 247.435 43.4443 237.303 39.2747 222.796C38.3706 219.663 37.8932 216.464 38.0202 213.195Z" fill="#FF752D"/>
<path d="M156.157 204.44C156.456 203.77 156.238 203.044 156.299 202.348C156.507 200.025 158 198.544 160.377 198.438C161.85 198.373 163.328 198.373 164.801 198.438C167.33 198.554 168.803 200.025 168.808 202.498C168.828 216.139 168.828 229.779 168.808 243.42C168.808 245.928 167.33 247.334 164.77 247.389C163.465 247.42 162.16 247.405 160.855 247.389C157.817 247.369 156.385 245.988 156.299 242.999C156.284 242.499 156.299 242.003 156.299 241.413C156.05 241.483 155.862 241.478 155.786 241.563C148.661 250.348 137.33 250.603 128.64 246.278C119.153 241.558 113.48 230.836 114.724 220.153C116.05 208.76 123.627 199.945 134.425 197.562C142.612 195.755 149.849 197.417 155.481 203.975C155.629 204.145 155.786 204.305 155.949 204.46C155.974 204.485 156.055 204.45 156.157 204.44ZM156.294 223.077C156.36 215.208 150.164 209.401 141.55 209.256C133.739 209.121 127.254 215.208 127.162 222.751C127.071 230.425 133.313 236.487 141.393 236.572C149.783 236.662 156.228 230.826 156.294 223.077Z" fill="#FF752D"/>
<path d="M289.001 241.358C286.401 244.887 283.445 247.239 279.59 248.306C268.321 251.429 256.685 243.625 255.258 232.042C254.649 227.076 255.009 222.101 254.938 217.13C254.872 212.49 254.913 207.849 254.928 203.204C254.938 199.89 256.457 198.433 259.844 198.418C260.865 198.413 261.886 198.403 262.907 198.418C266.005 198.468 267.503 199.915 267.513 202.974C267.533 210.577 267.513 218.181 267.523 225.79C267.523 231.086 270.86 235.381 275.69 236.327C280.997 237.368 285.492 234.93 287.701 229.824C288.768 227.362 289.072 224.774 289.067 222.121C289.057 215.858 289.062 209.596 289.067 203.334C289.067 199.835 290.484 198.433 293.999 198.418C295.192 198.418 296.386 198.373 297.574 198.433C300.093 198.559 301.576 200.035 301.581 202.498C301.602 216.144 301.602 229.784 301.581 243.43C301.581 245.908 300.073 247.33 297.523 247.385C296.162 247.415 294.801 247.415 293.44 247.385C290.489 247.314 289.164 245.963 289.072 243.005C289.062 242.619 289.037 242.229 289.001 241.358Z" fill="#FF752D"/>
<path d="M203.953 122.356C204.643 125.595 204.593 128.438 204.836 131.246C205.126 134.525 205.334 137.814 205.486 141.103C205.532 142.054 205.893 142.514 206.776 142.745C210.042 143.591 212.444 145.683 214.608 148.096C214.979 148.511 215.649 148.912 214.862 149.597C214.141 150.223 213.907 149.532 213.526 149.202C211.144 147.12 208.666 145.187 205.522 144.321C204.273 143.976 203.77 143.325 203.821 141.934C204.039 135.571 203.536 129.204 203.953 122.356Z" fill="#FF752D"/>
<path d="M110.067 245.888C109.859 246.989 109.29 247.71 108.142 247.62C107.116 247.545 106.476 246.864 106.507 245.843C106.537 244.721 107.289 244.121 108.396 244.166C109.447 244.211 109.96 244.917 110.067 245.883V245.888Z" fill="#FF752D"/>
<path d="M177.421 244.136C178.463 244.261 179.153 244.817 179.148 245.848C179.143 246.924 178.488 247.665 177.35 247.625C176.238 247.585 175.578 246.874 175.634 245.768C175.684 244.726 176.421 244.241 177.426 244.136H177.421Z" fill="#FF752D"/>
<path d="M248.3 245.808C248.194 246.859 247.665 247.615 246.528 247.63C245.497 247.645 244.816 247.009 244.75 245.993C244.679 244.862 245.385 244.211 246.487 244.166C247.533 244.126 248.123 244.767 248.295 245.803L248.3 245.808Z" fill="#FF752D"/>
<path d="M310.205 247.675C309.073 247.495 308.372 246.904 308.417 245.793C308.458 244.752 309.174 244.171 310.195 244.166C311.241 244.166 311.917 244.797 311.937 245.823C311.957 246.914 311.267 247.525 310.205 247.675Z" fill="#FF752D"/>
<path d="M6.105 278.15C5.185 278.15 4.38 277.99 3.69 277.67C3.01 277.34 2.44 276.905 1.98 276.365C1.52 275.815 1.175 275.2 0.945 274.52C0.715 273.84 0.6 273.145 0.6 272.435C0.6 271.735 0.715 271.045 0.945 270.365C1.175 269.685 1.52 269.075 1.98 268.535C2.44 267.985 3.01 267.55 3.69 267.23C4.38 266.91 5.185 266.75 6.105 266.75C6.875 266.75 7.53 266.85 8.07 267.05C8.62 267.24 9.075 267.49 9.435 267.8C9.805 268.1 10.1 268.425 10.32 268.775C10.55 269.115 10.72 269.44 10.83 269.75C10.94 270.05 11.01 270.3 11.04 270.5C11.08 270.69 11.1 270.785 11.1 270.785H8.805C8.805 270.785 8.785 270.72 8.745 270.59C8.715 270.45 8.65 270.285 8.55 270.095C8.45 269.895 8.3 269.7 8.1 269.51C7.91 269.32 7.65 269.16 7.32 269.03C7 268.89 6.6 268.82 6.12 268.82C5.43 268.82 4.85 269 4.38 269.36C3.92 269.71 3.57 270.16 3.33 270.71C3.1 271.26 2.985 271.835 2.985 272.435C2.985 273.035 3.1 273.615 3.33 274.175C3.57 274.725 3.92 275.18 4.38 275.54C4.85 275.89 5.43 276.065 6.12 276.065C6.6 276.065 7 276 7.32 275.87C7.65 275.74 7.91 275.58 8.1 275.39C8.3 275.19 8.45 274.995 8.55 274.805C8.65 274.605 8.715 274.44 8.745 274.31C8.785 274.18 8.805 274.115 8.805 274.115H11.1C11.1 274.115 11.08 274.215 11.04 274.415C11.01 274.605 10.94 274.855 10.83 275.165C10.72 275.465 10.55 275.79 10.32 276.14C10.1 276.48 9.805 276.805 9.435 277.115C9.075 277.415 8.62 277.665 8.07 277.865C7.53 278.055 6.875 278.15 6.105 278.15ZM16.5341 278.15C15.8341 278.15 15.2291 278.035 14.7191 277.805C14.2091 277.565 13.7891 277.25 13.4591 276.86C13.1291 276.46 12.8791 276.015 12.7091 275.525C12.5491 275.035 12.4691 274.53 12.4691 274.01C12.4691 273.51 12.5441 273.02 12.6941 272.54C12.8541 272.05 13.0941 271.605 13.4141 271.205C13.7441 270.805 14.1591 270.49 14.6591 270.26C15.1691 270.02 15.7691 269.9 16.4591 269.9C17.1891 269.9 17.8341 270.06 18.3941 270.38C18.9641 270.7 19.4091 271.175 19.7291 271.805C20.0491 272.425 20.2091 273.18 20.2091 274.07V274.625H14.7641C14.7941 275.105 14.9591 275.52 15.2591 275.87C15.5691 276.22 15.9941 276.395 16.5341 276.395C16.8441 276.395 17.0941 276.35 17.2841 276.26C17.4841 276.16 17.6391 276.05 17.7491 275.93C17.8591 275.8 17.9341 275.685 17.9741 275.585C18.0141 275.485 18.0341 275.435 18.0341 275.435H20.1341C20.1341 275.435 20.1091 275.53 20.0591 275.72C20.0191 275.9 19.9291 276.125 19.7891 276.395C19.6491 276.665 19.4441 276.935 19.1741 277.205C18.9141 277.475 18.5691 277.7 18.1391 277.88C17.7091 278.06 17.1741 278.15 16.5341 278.15ZM14.7641 273.245H18.0191C17.9891 272.695 17.8241 272.285 17.5241 272.015C17.2241 271.745 16.8541 271.61 16.4141 271.61C15.9741 271.61 15.5991 271.755 15.2891 272.045C14.9791 272.325 14.8041 272.725 14.7641 273.245ZM21.7587 278V270.05H24.0387V271.19H24.1137C24.2037 271.03 24.3337 270.85 24.5037 270.65C24.6837 270.45 24.9187 270.275 25.2087 270.125C25.5087 269.975 25.8887 269.9 26.3487 269.9C26.9687 269.9 27.4737 270.045 27.8637 270.335C28.2537 270.615 28.5387 270.98 28.7187 271.43C28.8987 271.87 28.9887 272.335 28.9887 272.825V278H26.7087V273.215C26.7087 272.835 26.6037 272.5 26.3937 272.21C26.1937 271.92 25.8687 271.775 25.4187 271.775C25.0787 271.775 24.8087 271.855 24.6087 272.015C24.4087 272.175 24.2637 272.38 24.1737 272.63C24.0837 272.88 24.0387 273.145 24.0387 273.425V278H21.7587ZM34.3113 278.15C33.6913 278.15 33.1963 278.06 32.8263 277.88C32.4563 277.69 32.1763 277.455 31.9863 277.175C31.7963 276.885 31.6713 276.58 31.6113 276.26C31.5513 275.94 31.5213 275.645 31.5213 275.375V271.865H30.1713V270.05H31.5213V268.085H33.8013V270.05H35.4963V271.865H33.8013V275.315C33.8013 275.645 33.8863 275.9 34.0563 276.08C34.2363 276.26 34.5313 276.35 34.9413 276.35C35.1213 276.35 35.2863 276.335 35.4363 276.305C35.5863 276.275 35.6613 276.26 35.6613 276.26V278.015C35.6613 278.015 35.5263 278.035 35.2563 278.075C34.9863 278.125 34.6713 278.15 34.3113 278.15ZM37.1835 278V270.05H39.4485V271.205H39.5235C39.6135 270.995 39.7385 270.79 39.8985 270.59C40.0585 270.39 40.2785 270.225 40.5585 270.095C40.8385 269.965 41.1985 269.9 41.6385 269.9C41.8585 269.9 42.0335 269.915 42.1635 269.945C42.2935 269.965 42.3585 269.975 42.3585 269.975V272.225C42.3585 272.225 42.2835 272.21 42.1335 272.18C41.9935 272.15 41.8085 272.135 41.5785 272.135C40.8685 272.135 40.3385 272.33 39.9885 272.72C39.6385 273.1 39.4635 273.725 39.4635 274.595V278H37.1835ZM47.3422 278.15C46.4522 278.15 45.6972 277.96 45.0772 277.58C44.4572 277.19 43.9822 276.685 43.6522 276.065C43.3322 275.435 43.1722 274.755 43.1722 274.025C43.1722 273.295 43.3322 272.62 43.6522 272C43.9822 271.37 44.4572 270.865 45.0772 270.485C45.6972 270.095 46.4522 269.9 47.3422 269.9C48.2322 269.9 48.9872 270.095 49.6072 270.485C50.2272 270.865 50.6972 271.37 51.0172 272C51.3472 272.62 51.5122 273.295 51.5122 274.025C51.5122 274.755 51.3472 275.435 51.0172 276.065C50.6972 276.685 50.2272 277.19 49.6072 277.58C48.9872 277.96 48.2322 278.15 47.3422 278.15ZM47.3422 276.29C47.7422 276.29 48.0772 276.185 48.3472 275.975C48.6272 275.765 48.8422 275.49 48.9922 275.15C49.1422 274.8 49.2172 274.425 49.2172 274.025C49.2172 273.615 49.1422 273.24 48.9922 272.9C48.8422 272.56 48.6272 272.285 48.3472 272.075C48.0772 271.865 47.7422 271.76 47.3422 271.76C46.9422 271.76 46.6022 271.865 46.3222 272.075C46.0422 272.285 45.8272 272.56 45.6772 272.9C45.5372 273.24 45.4672 273.615 45.4672 274.025C45.4672 274.425 45.5372 274.8 45.6772 275.15C45.8272 275.49 46.0422 275.765 46.3222 275.975C46.6022 276.185 46.9422 276.29 47.3422 276.29ZM59.9973 278.15C59.4073 278.15 58.8923 278.035 58.4523 277.805C58.0223 277.565 57.6623 277.25 57.3723 276.86C57.0823 276.46 56.8623 276.015 56.7123 275.525C56.5723 275.035 56.5023 274.535 56.5023 274.025C56.5023 273.515 56.5723 273.015 56.7123 272.525C56.8623 272.035 57.0823 271.595 57.3723 271.205C57.6623 270.805 58.0223 270.49 58.4523 270.26C58.8923 270.02 59.4073 269.9 59.9973 269.9C60.5073 269.9 60.9273 269.985 61.2573 270.155C61.5873 270.315 61.8373 270.49 62.0073 270.68C62.1873 270.87 62.2973 271 62.3373 271.07H62.4573V266.6H64.7373V278H62.4573V276.98H62.3373C62.2973 277.05 62.1873 277.18 62.0073 277.37C61.8373 277.56 61.5873 277.74 61.2573 277.91C60.9273 278.07 60.5073 278.15 59.9973 278.15ZM60.6573 276.305C61.0673 276.305 61.4073 276.195 61.6773 275.975C61.9573 275.745 62.1623 275.455 62.2923 275.105C62.4323 274.755 62.5023 274.395 62.5023 274.025C62.5023 273.655 62.4323 273.295 62.2923 272.945C62.1623 272.595 61.9573 272.31 61.6773 272.09C61.4073 271.86 61.0673 271.745 60.6573 271.745C60.2473 271.745 59.9023 271.86 59.6223 272.09C59.3523 272.31 59.1473 272.595 59.0073 272.945C58.8773 273.295 58.8123 273.655 58.8123 274.025C58.8123 274.395 58.8773 274.755 59.0073 275.105C59.1473 275.455 59.3523 275.745 59.6223 275.975C59.9023 276.195 60.2473 276.305 60.6573 276.305ZM70.4989 278.15C69.7989 278.15 69.1939 278.035 68.6839 277.805C68.1739 277.565 67.7539 277.25 67.4239 276.86C67.0939 276.46 66.8439 276.015 66.6739 275.525C66.5139 275.035 66.4339 274.53 66.4339 274.01C66.4339 273.51 66.5089 273.02 66.6589 272.54C66.8189 272.05 67.0589 271.605 67.3789 271.205C67.7089 270.805 68.1239 270.49 68.6239 270.26C69.1339 270.02 69.7339 269.9 70.4239 269.9C71.1539 269.9 71.7989 270.06 72.3589 270.38C72.9289 270.7 73.3739 271.175 73.6939 271.805C74.0139 272.425 74.1739 273.18 74.1739 274.07V274.625H68.7289C68.7589 275.105 68.9239 275.52 69.2239 275.87C69.5339 276.22 69.9589 276.395 70.4989 276.395C70.8089 276.395 71.0589 276.35 71.2489 276.26C71.4489 276.16 71.6039 276.05 71.7139 275.93C71.8239 275.8 71.8989 275.685 71.9389 275.585C71.9789 275.485 71.9989 275.435 71.9989 275.435H74.0989C74.0989 275.435 74.0739 275.53 74.0239 275.72C73.9839 275.9 73.8939 276.125 73.7539 276.395C73.6139 276.665 73.4089 276.935 73.1389 277.205C72.8789 277.475 72.5339 277.7 72.1039 277.88C71.6739 278.06 71.1389 278.15 70.4989 278.15ZM68.7289 273.245H71.9839C71.9539 272.695 71.7889 272.285 71.4889 272.015C71.1889 271.745 70.8189 271.61 70.3789 271.61C69.9389 271.61 69.5639 271.755 69.2539 272.045C68.9439 272.325 68.7689 272.725 68.7289 273.245ZM78.8484 278L82.6284 266.9H85.7034L89.4834 278H87.0534L86.3484 275.825H81.9984L81.2784 278H78.8484ZM82.6434 273.815H85.7034L84.1734 269.18L82.6434 273.815ZM90.7968 278V270.05H93.0768V271.19H93.1518C93.2418 271.03 93.3718 270.85 93.5418 270.65C93.7218 270.45 93.9568 270.275 94.2468 270.125C94.5468 269.975 94.9268 269.9 95.3868 269.9C96.0068 269.9 96.5118 270.045 96.9018 270.335C97.2918 270.615 97.5768 270.98 97.7568 271.43C97.9368 271.87 98.0268 272.335 98.0268 272.825V278H95.7468V273.215C95.7468 272.835 95.6418 272.5 95.4318 272.21C95.2318 271.92 94.9068 271.775 94.4568 271.775C94.1168 271.775 93.8468 271.855 93.6468 272.015C93.4468 272.175 93.3018 272.38 93.2118 272.63C93.1218 272.88 93.0768 273.145 93.0768 273.425V278H90.7968ZM101.112 268.97C100.712 268.97 100.387 268.845 100.137 268.595C99.8866 268.335 99.7616 268.03 99.7616 267.68C99.7616 267.31 99.8866 267 100.137 266.75C100.387 266.49 100.712 266.36 101.112 266.36C101.492 266.36 101.812 266.49 102.072 266.75C102.332 267 102.462 267.31 102.462 267.68C102.462 268.03 102.332 268.335 102.072 268.595C101.812 268.845 101.492 268.97 101.112 268.97ZM99.9716 278V270.05H102.252V278H99.9716ZM104.2 278V270.05H106.48V271.13H106.555C106.725 270.84 106.98 270.565 107.32 270.305C107.66 270.035 108.125 269.9 108.715 269.9C109.315 269.9 109.795 270.04 110.155 270.32C110.525 270.6 110.795 270.945 110.965 271.355H110.995C111.125 271.125 111.295 270.9 111.505 270.68C111.725 270.45 111.995 270.265 112.315 270.125C112.645 269.975 113.03 269.9 113.47 269.9C114.02 269.9 114.475 270.025 114.835 270.275C115.195 270.525 115.46 270.855 115.63 271.265C115.81 271.665 115.9 272.095 115.9 272.555V278H113.62V273.125C113.62 272.735 113.52 272.415 113.32 272.165C113.13 271.905 112.84 271.775 112.45 271.775C112.15 271.775 111.905 271.85 111.715 272C111.535 272.15 111.4 272.345 111.31 272.585C111.23 272.815 111.19 273.055 111.19 273.305V278H108.91V273.125C108.91 272.735 108.81 272.415 108.61 272.165C108.42 271.905 108.13 271.775 107.74 271.775C107.44 271.775 107.195 271.85 107.005 272C106.825 272.15 106.69 272.345 106.6 272.585C106.52 272.815 106.48 273.055 106.48 273.305V278H104.2ZM120.949 269.9C121.459 269.9 121.879 269.985 122.209 270.155C122.539 270.315 122.789 270.49 122.959 270.68C123.139 270.87 123.249 271 123.289 271.07H123.409V270.05H125.689V278H123.409V276.98H123.289C123.249 277.05 123.139 277.18 122.959 277.37C122.789 277.56 122.539 277.74 122.209 277.91C121.879 278.07 121.459 278.15 120.949 278.15C120.359 278.15 119.844 278.035 119.404 277.805C118.974 277.565 118.614 277.25 118.324 276.86C118.034 276.46 117.814 276.015 117.664 275.525C117.524 275.035 117.454 274.535 117.454 274.025C117.454 273.515 117.524 273.015 117.664 272.525C117.814 272.035 118.034 271.595 118.324 271.205C118.614 270.805 118.974 270.49 119.404 270.26C119.844 270.02 120.359 269.9 120.949 269.9ZM121.609 271.745C121.199 271.745 120.854 271.86 120.574 272.09C120.304 272.31 120.099 272.595 119.959 272.945C119.829 273.295 119.764 273.655 119.764 274.025C119.764 274.395 119.829 274.755 119.959 275.105C120.099 275.455 120.304 275.745 120.574 275.975C120.854 276.195 121.199 276.305 121.609 276.305C122.019 276.305 122.359 276.195 122.629 275.975C122.909 275.745 123.114 275.455 123.244 275.105C123.384 274.755 123.454 274.395 123.454 274.025C123.454 273.655 123.384 273.295 123.244 272.945C123.114 272.595 122.909 272.31 122.629 272.09C122.359 271.86 122.019 271.745 121.609 271.745ZM128.826 268.97C128.426 268.97 128.101 268.845 127.851 268.595C127.601 268.335 127.476 268.03 127.476 267.68C127.476 267.31 127.601 267 127.851 266.75C128.101 266.49 128.426 266.36 128.826 266.36C129.206 266.36 129.526 266.49 129.786 266.75C130.046 267 130.176 267.31 130.176 267.68C130.176 268.03 130.046 268.335 129.786 268.595C129.526 268.845 129.206 268.97 128.826 268.97ZM127.686 278V270.05H129.966V278H127.686ZM135.26 278.15C134.6 278.15 134.055 278.06 133.625 277.88C133.195 277.7 132.85 277.48 132.59 277.22C132.34 276.95 132.15 276.685 132.02 276.425C131.9 276.155 131.82 275.93 131.78 275.75C131.75 275.57 131.735 275.48 131.735 275.48H133.85C133.85 275.48 133.865 275.53 133.895 275.63C133.925 275.73 133.99 275.845 134.09 275.975C134.2 276.105 134.355 276.22 134.555 276.32C134.755 276.42 135.025 276.47 135.365 276.47C135.785 276.47 136.07 276.385 136.22 276.215C136.38 276.045 136.46 275.875 136.46 275.705C136.46 275.345 136.165 275.105 135.575 274.985L134.495 274.775C134.035 274.685 133.6 274.555 133.19 274.385C132.79 274.205 132.465 273.96 132.215 273.65C131.975 273.33 131.855 272.92 131.855 272.42C131.855 271.94 131.98 271.51 132.23 271.13C132.48 270.75 132.835 270.45 133.295 270.23C133.765 270.01 134.325 269.9 134.975 269.9C135.585 269.9 136.09 269.985 136.49 270.155C136.9 270.315 137.225 270.52 137.465 270.77C137.705 271.01 137.885 271.255 138.005 271.505C138.125 271.745 138.2 271.95 138.23 272.12C138.27 272.28 138.29 272.36 138.29 272.36H136.25C136.25 272.36 136.22 272.295 136.16 272.165C136.1 272.025 135.975 271.89 135.785 271.76C135.605 271.62 135.325 271.55 134.945 271.55C134.555 271.55 134.285 271.63 134.135 271.79C133.985 271.94 133.91 272.1 133.91 272.27C133.91 272.47 133.995 272.62 134.165 272.72C134.345 272.82 134.575 272.9 134.855 272.96L135.89 273.17C136.65 273.32 137.275 273.585 137.765 273.965C138.255 274.335 138.5 274.875 138.5 275.585C138.5 276.065 138.375 276.5 138.125 276.89C137.875 277.28 137.51 277.59 137.03 277.82C136.55 278.04 135.96 278.15 135.26 278.15ZM147.389 278.15C146.689 278.15 146.084 278.035 145.574 277.805C145.064 277.565 144.644 277.25 144.314 276.86C143.984 276.46 143.734 276.015 143.564 275.525C143.404 275.035 143.324 274.53 143.324 274.01C143.324 273.51 143.399 273.02 143.549 272.54C143.709 272.05 143.949 271.605 144.269 271.205C144.599 270.805 145.014 270.49 145.514 270.26C146.024 270.02 146.624 269.9 147.314 269.9C148.044 269.9 148.689 270.06 149.249 270.38C149.819 270.7 150.264 271.175 150.584 271.805C150.904 272.425 151.064 273.18 151.064 274.07V274.625H145.619C145.649 275.105 145.814 275.52 146.114 275.87C146.424 276.22 146.849 276.395 147.389 276.395C147.699 276.395 147.949 276.35 148.139 276.26C148.339 276.16 148.494 276.05 148.604 275.93C148.714 275.8 148.789 275.685 148.829 275.585C148.869 275.485 148.889 275.435 148.889 275.435H150.989C150.989 275.435 150.964 275.53 150.914 275.72C150.874 275.9 150.784 276.125 150.644 276.395C150.504 276.665 150.299 276.935 150.029 277.205C149.769 277.475 149.424 277.7 148.994 277.88C148.564 278.06 148.029 278.15 147.389 278.15ZM145.619 273.245H148.874C148.844 272.695 148.679 272.285 148.379 272.015C148.079 271.745 147.709 271.61 147.269 271.61C146.829 271.61 146.454 271.755 146.144 272.045C145.834 272.325 145.659 272.725 145.619 273.245ZM152.613 278V270.05H154.893V271.13H154.968C155.138 270.84 155.393 270.565 155.733 270.305C156.073 270.035 156.538 269.9 157.128 269.9C157.728 269.9 158.208 270.04 158.568 270.32C158.938 270.6 159.208 270.945 159.378 271.355H159.408C159.538 271.125 159.708 270.9 159.918 270.68C160.138 270.45 160.408 270.265 160.728 270.125C161.058 269.975 161.443 269.9 161.883 269.9C162.433 269.9 162.888 270.025 163.248 270.275C163.608 270.525 163.873 270.855 164.043 271.265C164.223 271.665 164.313 272.095 164.313 272.555V278H162.033V273.125C162.033 272.735 161.933 272.415 161.733 272.165C161.543 271.905 161.253 271.775 160.863 271.775C160.563 271.775 160.318 271.85 160.128 272C159.948 272.15 159.813 272.345 159.723 272.585C159.643 272.815 159.603 273.055 159.603 273.305V278H157.323V273.125C157.323 272.735 157.223 272.415 157.023 272.165C156.833 271.905 156.543 271.775 156.153 271.775C155.853 271.775 155.608 271.85 155.418 272C155.238 272.15 155.103 272.345 155.013 272.585C154.933 272.815 154.893 273.055 154.893 273.305V278H152.613ZM169.667 278V266.9H173.867C174.767 266.9 175.557 267.06 176.237 267.38C176.927 267.69 177.497 268.11 177.947 268.64C178.397 269.17 178.737 269.765 178.967 270.425C179.197 271.085 179.312 271.76 179.312 272.45C179.312 273.14 179.197 273.815 178.967 274.475C178.737 275.135 178.397 275.73 177.947 276.26C177.497 276.79 176.927 277.215 176.237 277.535C175.557 277.845 174.767 278 173.867 278H169.667ZM173.762 268.925H171.977V275.945H173.762C174.492 275.945 175.092 275.775 175.562 275.435C176.042 275.095 176.397 274.655 176.627 274.115C176.867 273.575 176.987 273.015 176.987 272.435C176.987 271.855 176.867 271.3 176.627 270.77C176.397 270.23 176.042 269.79 175.562 269.45C175.092 269.1 174.492 268.925 173.762 268.925ZM182.132 268.97C181.732 268.97 181.407 268.845 181.157 268.595C180.907 268.335 180.782 268.03 180.782 267.68C180.782 267.31 180.907 267 181.157 266.75C181.407 266.49 181.732 266.36 182.132 266.36C182.512 266.36 182.832 266.49 183.092 266.75C183.352 267 183.482 267.31 183.482 267.68C183.482 268.03 183.352 268.335 183.092 268.595C182.832 268.845 182.512 268.97 182.132 268.97ZM180.992 278V270.05H183.272V278H180.992ZM192.751 268.97C192.361 268.97 192.036 268.845 191.776 268.595C191.526 268.335 191.401 268.03 191.401 267.68C191.401 267.31 191.526 267 191.776 266.75C192.036 266.49 192.361 266.36 192.751 266.36C193.141 266.36 193.461 266.49 193.711 266.75C193.971 267 194.101 267.31 194.101 267.68C194.101 268.03 193.971 268.335 193.711 268.595C193.461 268.845 193.141 268.97 192.751 268.97ZM186.151 278V271.865H184.891V270.05H186.151V269.42C186.151 269.13 186.191 268.815 186.271 268.475C186.351 268.135 186.491 267.81 186.691 267.5C186.901 267.19 187.191 266.94 187.561 266.75C187.931 266.55 188.406 266.45 188.986 266.45C189.306 266.45 189.566 266.475 189.766 266.525C189.976 266.565 190.081 266.585 190.081 266.585V268.19C190.081 268.19 190.021 268.18 189.901 268.16C189.781 268.14 189.656 268.13 189.526 268.13C189.116 268.13 188.831 268.25 188.671 268.49C188.511 268.73 188.431 269.04 188.431 269.42V270.05H193.891V278H191.611V271.865H188.431V278H186.151ZM199.876 278.15C199.176 278.15 198.566 278.035 198.046 277.805C197.526 277.565 197.096 277.25 196.756 276.86C196.416 276.47 196.161 276.03 195.991 275.54C195.821 275.04 195.736 274.535 195.736 274.025C195.736 273.515 195.821 273.015 195.991 272.525C196.161 272.035 196.416 271.595 196.756 271.205C197.096 270.805 197.526 270.49 198.046 270.26C198.566 270.02 199.176 269.9 199.876 269.9C200.586 269.9 201.171 270.005 201.631 270.215C202.091 270.415 202.456 270.67 202.726 270.98C203.006 271.28 203.211 271.585 203.341 271.895C203.471 272.195 203.551 272.45 203.581 272.66C203.621 272.86 203.641 272.96 203.641 272.96H201.511C201.511 272.96 201.491 272.9 201.451 272.78C201.421 272.65 201.351 272.505 201.241 272.345C201.141 272.175 200.986 272.03 200.776 271.91C200.566 271.78 200.286 271.715 199.936 271.715C199.506 271.715 199.146 271.825 198.856 272.045C198.576 272.255 198.366 272.535 198.226 272.885C198.086 273.235 198.016 273.615 198.016 274.025C198.016 274.435 198.086 274.815 198.226 275.165C198.366 275.515 198.576 275.8 198.856 276.02C199.146 276.23 199.506 276.335 199.936 276.335C200.286 276.335 200.566 276.275 200.776 276.155C200.986 276.025 201.141 275.88 201.241 275.72C201.351 275.55 201.421 275.405 201.451 275.285C201.491 275.155 201.511 275.09 201.511 275.09H203.641C203.641 275.09 203.621 275.195 203.581 275.405C203.551 275.605 203.471 275.86 203.341 276.17C203.211 276.47 203.006 276.775 202.726 277.085C202.456 277.385 202.091 277.64 201.631 277.85C201.171 278.05 200.586 278.15 199.876 278.15ZM207.749 278.15C207.189 278.15 206.724 278.03 206.354 277.79C205.994 277.55 205.724 277.23 205.544 276.83C205.364 276.42 205.274 275.96 205.274 275.45V270.05H207.539V275C207.539 275.38 207.639 275.69 207.839 275.93C208.039 276.16 208.334 276.275 208.724 276.275C209.054 276.275 209.314 276.195 209.504 276.035C209.704 275.875 209.849 275.67 209.939 275.42C210.029 275.17 210.074 274.905 210.074 274.625V270.05H212.354V278H210.074V276.875H209.984C209.814 277.185 209.549 277.475 209.189 277.745C208.839 278.015 208.359 278.15 207.749 278.15ZM214.243 278V266.6H216.523V278H214.243ZM221.716 278.15C221.126 278.15 220.611 278.035 220.171 277.805C219.741 277.565 219.381 277.25 219.091 276.86C218.801 276.46 218.581 276.015 218.431 275.525C218.291 275.035 218.221 274.535 218.221 274.025C218.221 273.515 218.291 273.015 218.431 272.525C218.581 272.035 218.801 271.595 219.091 271.205C219.381 270.805 219.741 270.49 220.171 270.26C220.611 270.02 221.126 269.9 221.716 269.9C222.226 269.9 222.646 269.985 222.976 270.155C223.306 270.315 223.556 270.49 223.726 270.68C223.906 270.87 224.016 271 224.056 271.07H224.176V266.6H226.456V278H224.176V276.98H224.056C224.016 277.05 223.906 277.18 223.726 277.37C223.556 277.56 223.306 277.74 222.976 277.91C222.646 278.07 222.226 278.15 221.716 278.15ZM222.376 276.305C222.786 276.305 223.126 276.195 223.396 275.975C223.676 275.745 223.881 275.455 224.011 275.105C224.151 274.755 224.221 274.395 224.221 274.025C224.221 273.655 224.151 273.295 224.011 272.945C223.881 272.595 223.676 272.31 223.396 272.09C223.126 271.86 222.786 271.745 222.376 271.745C221.966 271.745 221.621 271.86 221.341 272.09C221.071 272.31 220.866 272.595 220.726 272.945C220.596 273.295 220.531 273.655 220.531 274.025C220.531 274.395 220.596 274.755 220.726 275.105C220.866 275.455 221.071 275.745 221.341 275.975C221.621 276.195 221.966 276.305 222.376 276.305ZM231.648 269.9C232.158 269.9 232.578 269.985 232.908 270.155C233.238 270.315 233.488 270.49 233.658 270.68C233.838 270.87 233.948 271 233.988 271.07H234.108V270.05H236.388V278H234.108V276.98H233.988C233.948 277.05 233.838 277.18 233.658 277.37C233.488 277.56 233.238 277.74 232.908 277.91C232.578 278.07 232.158 278.15 231.648 278.15C231.058 278.15 230.543 278.035 230.103 277.805C229.673 277.565 229.313 277.25 229.023 276.86C228.733 276.46 228.513 276.015 228.363 275.525C228.223 275.035 228.153 274.535 228.153 274.025C228.153 273.515 228.223 273.015 228.363 272.525C228.513 272.035 228.733 271.595 229.023 271.205C229.313 270.805 229.673 270.49 230.103 270.26C230.543 270.02 231.058 269.9 231.648 269.9ZM232.308 271.745C231.898 271.745 231.553 271.86 231.273 272.09C231.003 272.31 230.798 272.595 230.658 272.945C230.528 273.295 230.463 273.655 230.463 274.025C230.463 274.395 230.528 274.755 230.658 275.105C230.798 275.455 231.003 275.745 231.273 275.975C231.553 276.195 231.898 276.305 232.308 276.305C232.718 276.305 233.058 276.195 233.328 275.975C233.608 275.745 233.813 275.455 233.943 275.105C234.083 274.755 234.153 274.395 234.153 274.025C234.153 273.655 234.083 273.295 233.943 272.945C233.813 272.595 233.608 272.31 233.328 272.09C233.058 271.86 232.718 271.745 232.308 271.745ZM241.609 278.15C241.019 278.15 240.504 278.035 240.064 277.805C239.634 277.565 239.274 277.25 238.984 276.86C238.694 276.46 238.474 276.015 238.324 275.525C238.184 275.035 238.114 274.535 238.114 274.025C238.114 273.515 238.184 273.015 238.324 272.525C238.474 272.035 238.694 271.595 238.984 271.205C239.274 270.805 239.634 270.49 240.064 270.26C240.504 270.02 241.019 269.9 241.609 269.9C242.119 269.9 242.539 269.985 242.869 270.155C243.199 270.315 243.449 270.49 243.619 270.68C243.799 270.87 243.909 271 243.949 271.07H244.069V266.6H246.349V278H244.069V276.98H243.949C243.909 277.05 243.799 277.18 243.619 277.37C243.449 277.56 243.199 277.74 242.869 277.91C242.539 278.07 242.119 278.15 241.609 278.15ZM242.269 276.305C242.679 276.305 243.019 276.195 243.289 275.975C243.569 275.745 243.774 275.455 243.904 275.105C244.044 274.755 244.114 274.395 244.114 274.025C244.114 273.655 244.044 273.295 243.904 272.945C243.774 272.595 243.569 272.31 243.289 272.09C243.019 271.86 242.679 271.745 242.269 271.745C241.859 271.745 241.514 271.86 241.234 272.09C240.964 272.31 240.759 272.595 240.619 272.945C240.489 273.295 240.424 273.655 240.424 274.025C240.424 274.395 240.489 274.755 240.619 275.105C240.759 275.455 240.964 275.745 241.234 275.975C241.514 276.195 241.859 276.305 242.269 276.305ZM252.11 278.15C251.41 278.15 250.805 278.035 250.295 277.805C249.785 277.565 249.365 277.25 249.035 276.86C248.705 276.46 248.455 276.015 248.285 275.525C248.125 275.035 248.045 274.53 248.045 274.01C248.045 273.51 248.12 273.02 248.27 272.54C248.43 272.05 248.67 271.605 248.99 271.205C249.32 270.805 249.735 270.49 250.235 270.26C250.745 270.02 251.345 269.9 252.035 269.9C252.765 269.9 253.41 270.06 253.97 270.38C254.54 270.7 254.985 271.175 255.305 271.805C255.625 272.425 255.785 273.18 255.785 274.07V274.625H250.34C250.37 275.105 250.535 275.52 250.835 275.87C251.145 276.22 251.57 276.395 252.11 276.395C252.42 276.395 252.67 276.35 252.86 276.26C253.06 276.16 253.215 276.05 253.325 275.93C253.435 275.8 253.51 275.685 253.55 275.585C253.59 275.485 253.61 275.435 253.61 275.435H255.71C255.71 275.435 255.685 275.53 255.635 275.72C255.595 275.9 255.505 276.125 255.365 276.395C255.225 276.665 255.02 276.935 254.75 277.205C254.49 277.475 254.145 277.7 253.715 277.88C253.285 278.06 252.75 278.15 252.11 278.15ZM250.34 273.245H253.595C253.565 272.695 253.4 272.285 253.1 272.015C252.8 271.745 252.43 271.61 251.99 271.61C251.55 271.61 251.175 271.755 250.865 272.045C250.555 272.325 250.38 272.725 250.34 273.245ZM264.84 278.15C264.14 278.15 263.535 278.035 263.025 277.805C262.515 277.565 262.095 277.25 261.765 276.86C261.435 276.46 261.185 276.015 261.015 275.525C260.855 275.035 260.775 274.53 260.775 274.01C260.775 273.51 260.85 273.02 261 272.54C261.16 272.05 261.4 271.605 261.72 271.205C262.05 270.805 262.465 270.49 262.965 270.26C263.475 270.02 264.075 269.9 264.765 269.9C265.495 269.9 266.14 270.06 266.7 270.38C267.27 270.7 267.715 271.175 268.035 271.805C268.355 272.425 268.515 273.18 268.515 274.07V274.625H263.07C263.1 275.105 263.265 275.52 263.565 275.87C263.875 276.22 264.3 276.395 264.84 276.395C265.15 276.395 265.4 276.35 265.59 276.26C265.79 276.16 265.945 276.05 266.055 275.93C266.165 275.8 266.24 275.685 266.28 275.585C266.32 275.485 266.34 275.435 266.34 275.435H268.44C268.44 275.435 268.415 275.53 268.365 275.72C268.325 275.9 268.235 276.125 268.095 276.395C267.955 276.665 267.75 276.935 267.48 277.205C267.22 277.475 266.875 277.7 266.445 277.88C266.015 278.06 265.48 278.15 264.84 278.15ZM263.07 273.245H266.325C266.295 272.695 266.13 272.285 265.83 272.015C265.53 271.745 265.16 271.61 264.72 271.61C264.28 271.61 263.905 271.755 263.595 272.045C263.285 272.325 263.11 272.725 263.07 273.245ZM278.274 278.15C277.464 278.15 276.714 277.995 276.024 277.685C275.344 277.375 274.794 276.895 274.374 276.245C273.964 275.595 273.759 274.75 273.759 273.71V266.9H276.069V273.71C276.069 274.35 276.249 274.89 276.609 275.33C276.969 275.76 277.524 275.975 278.274 275.975C279.024 275.975 279.574 275.76 279.924 275.33C280.284 274.89 280.464 274.35 280.464 273.71V266.9H282.789V273.71C282.789 274.75 282.579 275.595 282.159 276.245C281.749 276.895 281.199 277.375 280.509 277.685C279.819 277.995 279.074 278.15 278.274 278.15ZM284.683 278V270.05H286.948V271.205H287.023C287.113 270.995 287.238 270.79 287.398 270.59C287.558 270.39 287.778 270.225 288.058 270.095C288.338 269.965 288.698 269.9 289.138 269.9C289.358 269.9 289.533 269.915 289.663 269.945C289.793 269.965 289.858 269.975 289.858 269.975V272.225C289.858 272.225 289.783 272.21 289.633 272.18C289.493 272.15 289.308 272.135 289.078 272.135C288.368 272.135 287.838 272.33 287.488 272.72C287.138 273.1 286.963 273.725 286.963 274.595V278H284.683ZM294.857 281.18C294.117 281.18 293.507 281.09 293.027 280.91C292.557 280.73 292.182 280.5 291.902 280.22C291.622 279.95 291.417 279.68 291.287 279.41C291.157 279.14 291.072 278.91 291.032 278.72C291.002 278.54 290.987 278.45 290.987 278.45H293.207C293.207 278.45 293.222 278.495 293.252 278.585C293.292 278.685 293.367 278.795 293.477 278.915C293.587 279.045 293.747 279.155 293.957 279.245C294.177 279.345 294.467 279.395 294.827 279.395C295.447 279.395 295.902 279.22 296.192 278.87C296.492 278.52 296.642 278.06 296.642 277.49V276.65H296.537C296.437 276.81 296.287 276.985 296.087 277.175C295.887 277.365 295.632 277.525 295.322 277.655C295.012 277.785 294.637 277.85 294.197 277.85C293.607 277.85 293.092 277.74 292.652 277.52C292.212 277.29 291.842 276.985 291.542 276.605C291.252 276.225 291.032 275.8 290.882 275.33C290.742 274.86 290.672 274.375 290.672 273.875C290.672 273.385 290.742 272.905 290.882 272.435C291.032 271.955 291.252 271.525 291.542 271.145C291.842 270.765 292.212 270.465 292.652 270.245C293.092 270.015 293.607 269.9 294.197 269.9C294.637 269.9 295.012 269.97 295.322 270.11C295.632 270.24 295.887 270.4 296.087 270.59C296.297 270.77 296.447 270.945 296.537 271.115H296.642V270.05H298.922V277.49C298.922 278.15 298.777 278.76 298.487 279.32C298.197 279.88 297.752 280.33 297.152 280.67C296.552 281.01 295.787 281.18 294.857 281.18ZM294.827 276.05C295.247 276.05 295.592 275.945 295.862 275.735C296.142 275.525 296.352 275.255 296.492 274.925C296.632 274.585 296.702 274.235 296.702 273.875C296.702 273.505 296.632 273.155 296.492 272.825C296.352 272.495 296.142 272.225 295.862 272.015C295.592 271.805 295.247 271.7 294.827 271.7C294.417 271.7 294.072 271.805 293.792 272.015C293.522 272.225 293.317 272.495 293.177 272.825C293.037 273.155 292.967 273.505 292.967 273.875C292.967 274.235 293.037 274.585 293.177 274.925C293.317 275.255 293.522 275.525 293.792 275.735C294.072 275.945 294.417 276.05 294.827 276.05ZM301.598 269.06L303.533 266.36H305.348L307.283 269.06H305.498L304.433 267.5L303.383 269.06H301.598ZM304.508 278.15C303.808 278.15 303.203 278.035 302.693 277.805C302.183 277.565 301.763 277.25 301.433 276.86C301.103 276.46 300.853 276.015 300.683 275.525C300.523 275.035 300.443 274.53 300.443 274.01C300.443 273.51 300.523 273.02 300.683 272.54C300.843 272.05 301.083 271.605 301.403 271.205C301.733 270.805 302.148 270.49 302.648 270.26C303.148 270.02 303.743 269.9 304.433 269.9C305.173 269.9 305.823 270.06 306.383 270.38C306.943 270.7 307.383 271.175 307.703 271.805C308.023 272.425 308.183 273.18 308.183 274.07V274.625H302.738C302.768 275.105 302.933 275.52 303.233 275.87C303.543 276.22 303.968 276.395 304.508 276.395C304.818 276.395 305.068 276.35 305.258 276.26C305.458 276.16 305.613 276.05 305.723 275.93C305.833 275.8 305.908 275.685 305.948 275.585C305.998 275.485 306.023 275.435 306.023 275.435H308.123C308.123 275.435 308.098 275.53 308.048 275.72C307.998 275.9 307.903 276.125 307.763 276.395C307.623 276.665 307.418 276.935 307.148 277.205C306.888 277.475 306.543 277.7 306.113 277.88C305.683 278.06 305.148 278.15 304.508 278.15ZM302.738 273.245H305.993C305.973 272.695 305.808 272.285 305.498 272.015C305.198 271.745 304.828 271.61 304.388 271.61C303.948 271.61 303.573 271.755 303.263 272.045C302.963 272.325 302.788 272.725 302.738 273.245ZM309.732 278V270.05H312.012V271.19H312.087C312.177 271.03 312.307 270.85 312.477 270.65C312.657 270.45 312.892 270.275 313.182 270.125C313.482 269.975 313.862 269.9 314.322 269.9C314.942 269.9 315.447 270.045 315.837 270.335C316.227 270.615 316.512 270.98 316.692 271.43C316.872 271.87 316.962 272.335 316.962 272.825V278H314.682V273.215C314.682 272.835 314.577 272.5 314.367 272.21C314.167 271.92 313.842 271.775 313.392 271.775C313.052 271.775 312.782 271.855 312.582 272.015C312.382 272.175 312.237 272.38 312.147 272.63C312.057 272.88 312.012 273.145 312.012 273.425V278H309.732ZM322.644 278.15C321.944 278.15 321.334 278.035 320.814 277.805C320.294 277.565 319.864 277.25 319.524 276.86C319.184 276.47 318.929 276.03 318.759 275.54C318.589 275.04 318.504 274.535 318.504 274.025C318.504 273.515 318.589 273.015 318.759 272.525C318.929 272.035 319.184 271.595 319.524 271.205C319.864 270.805 320.294 270.49 320.814 270.26C321.334 270.02 321.944 269.9 322.644 269.9C323.354 269.9 323.939 270.005 324.399 270.215C324.859 270.415 325.224 270.67 325.494 270.98C325.774 271.28 325.979 271.585 326.109 271.895C326.239 272.195 326.319 272.45 326.349 272.66C326.389 272.86 326.409 272.96 326.409 272.96H324.279C324.279 272.96 324.259 272.9 324.219 272.78C324.189 272.65 324.119 272.505 324.009 272.345C323.909 272.175 323.754 272.03 323.544 271.91C323.334 271.78 323.054 271.715 322.704 271.715C322.274 271.715 321.914 271.825 321.624 272.045C321.344 272.255 321.134 272.535 320.994 272.885C320.854 273.235 320.784 273.615 320.784 274.025C320.784 274.435 320.854 274.815 320.994 275.165C321.134 275.515 321.344 275.8 321.624 276.02C321.914 276.23 322.274 276.335 322.704 276.335C323.054 276.335 323.334 276.275 323.544 276.155C323.754 276.025 323.909 275.88 324.009 275.72C324.119 275.55 324.189 275.405 324.219 275.285C324.259 275.155 324.279 275.09 324.279 275.09H326.409C326.409 275.09 326.389 275.195 326.349 275.405C326.319 275.605 326.239 275.86 326.109 276.17C325.979 276.47 325.774 276.775 325.494 277.085C325.224 277.385 324.859 277.64 324.399 277.85C323.939 278.05 323.354 278.15 322.644 278.15ZM329.393 268.97C328.993 268.97 328.668 268.845 328.418 268.595C328.168 268.335 328.043 268.03 328.043 267.68C328.043 267.31 328.168 267 328.418 266.75C328.668 266.49 328.993 266.36 329.393 266.36C329.773 266.36 330.093 266.49 330.353 266.75C330.613 267 330.743 267.31 330.743 267.68C330.743 268.03 330.613 268.335 330.353 268.595C330.093 268.845 329.773 268.97 329.393 268.97ZM328.253 278V270.05H330.533V278H328.253ZM335.871 269.9C336.381 269.9 336.801 269.985 337.131 270.155C337.461 270.315 337.711 270.49 337.881 270.68C338.061 270.87 338.171 271 338.211 271.07H338.331V270.05H340.611V278H338.331V276.98H338.211C338.171 277.05 338.061 277.18 337.881 277.37C337.711 277.56 337.461 277.74 337.131 277.91C336.801 278.07 336.381 278.15 335.871 278.15C335.281 278.15 334.766 278.035 334.326 277.805C333.896 277.565 333.536 277.25 333.246 276.86C332.956 276.46 332.736 276.015 332.586 275.525C332.446 275.035 332.376 274.535 332.376 274.025C332.376 273.515 332.446 273.015 332.586 272.525C332.736 272.035 332.956 271.595 333.246 271.205C333.536 270.805 333.896 270.49 334.326 270.26C334.766 270.02 335.281 269.9 335.871 269.9ZM336.531 271.745C336.121 271.745 335.776 271.86 335.496 272.09C335.226 272.31 335.021 272.595 334.881 272.945C334.751 273.295 334.686 273.655 334.686 274.025C334.686 274.395 334.751 274.755 334.881 275.105C335.021 275.455 335.226 275.745 335.496 275.975C335.776 276.195 336.121 276.305 336.531 276.305C336.941 276.305 337.281 276.195 337.551 275.975C337.831 275.745 338.036 275.455 338.166 275.105C338.306 274.755 338.376 274.395 338.376 274.025C338.376 273.655 338.306 273.295 338.166 272.945C338.036 272.595 337.831 272.31 337.551 272.09C337.281 271.86 336.941 271.745 336.531 271.745Z" fill="#FF752D"/>
</svg>
