<svg width="29" height="29" viewBox="0 0 29 29" fill="none" xmlns="http://www.w3.org/2000/svg">
<path d="M27 2L17.3571 11.6429M27 2H18.0714M27 2V10.9286M2 18.0714C2 20.4394 2.94069 22.7104 4.61512 24.3849C6.28955 26.0593 8.56057 27 10.9286 27C13.2966 27 15.5676 26.0593 17.242 24.3849C18.9165 22.7104 19.8571 20.4394 19.8571 18.0714C19.8571 15.7034 18.9165 13.4324 17.242 11.758C15.5676 10.0835 13.2966 9.14286 10.9286 9.14286C8.56057 9.14286 6.28955 10.0835 4.61512 11.758C2.94069 13.4324 2 15.7034 2 18.0714Z" stroke="#707070" stroke-width="4" stroke-linecap="round" stroke-linejoin="round"/>
</svg>
