<svg width="30" height="27" viewBox="0 0 30 27" fill="none" xmlns="http://www.w3.org/2000/svg">
<path d="M28.1896 20.9854C30.2312 22.8375 28.875 26.25 26.1333 26.25H13.2125C12.2424 26.2539 11.2811 26.0656 10.3841 25.6962C9.48703 25.3267 8.67203 24.7833 7.98604 24.0973C7.30005 23.4113 6.75665 22.5963 6.38718 21.6993C6.01771 20.8023 5.82948 19.841 5.83333 18.8708V18.7979C2.47917 18.1125 0 15.1813 0 11.6667C0 7.65625 3.2375 4.375 7.29167 4.375H10.9375C11.375 4.375 11.6667 4.03958 11.6667 3.64583C11.6667 3.25208 11.375 2.91667 10.9375 2.91667H7.29167V0H10.9375C12.95 0 14.5833 1.64792 14.5833 3.64583C14.5833 5.67292 12.95 7.29167 10.9375 7.29167H7.29167C4.87083 7.29167 2.91667 9.23125 2.91667 11.6667C2.91667 13.6646 4.25833 15.3125 6.0375 15.8521C6.85417 12.6438 9.72708 10.2083 13.2125 10.2083C14.3792 10.2083 15.5458 10.5292 16.5667 11.0104C14.5104 12.1625 13.125 14.2917 13.125 16.7708C13.125 18.5938 13.8542 20.2271 15.0646 21.3938L16.0854 20.3729C15.1375 19.4833 14.5833 18.1854 14.5833 16.7708C14.5833 12.9938 17.9958 11.6667 19.6875 11.6667C22.7208 11.6667 25.4479 14.4229 24.7042 17.8354L28.1896 20.9854ZM23.3333 23.3333C24.15 23.3333 24.7917 22.6917 24.7917 21.875C24.7917 21.0583 24.15 20.4167 23.3333 20.4167C22.5167 20.4167 21.875 21.0583 21.875 21.875C21.875 22.6917 22.5167 23.3333 23.3333 23.3333Z" fill="#414141"/>
</svg>
