<svg width="26" height="34" viewBox="0 0 26 34" fill="none" xmlns="http://www.w3.org/2000/svg">
<path d="M22.2559 10.8734C22.6003 10.8259 22.921 11.0397 23.0041 11.3722C23.0041 11.3722 25.326 24.9627 25.3141 26.5186C25.3141 30.4854 22.9756 33.3655 18.9672 33.3655C13.9577 33.3655 11.8412 29.249 11.8412 25.1444C11.8412 24.6706 11.7652 24.2335 11.6286 23.8249H10.1417C10.1031 23.8255 10.0663 23.8411 10.0391 23.8684C10.0118 23.8957 9.99621 23.9325 9.9956 23.971V25.1706C9.9956 26.1421 9.20224 26.9271 8.45519 27.0138L8.32099 27.0293C8.02882 27.059 7.79722 27.0827 7.58226 27.2977C7.58226 27.2977 7.02049 27.8891 6.83759 27.9972C6.65469 28.1053 6.15349 28.1991 5.90883 27.9556C5.66536 27.7122 5.64161 27.2906 5.88508 27.0471L6.16774 26.768C6.20337 26.7205 6.201 26.6338 6.13924 26.6338L5.52759 26.6813C5.3934 26.6816 5.26391 26.6319 5.16441 26.5419C5.06492 26.4518 5.00258 26.3279 4.98958 26.1943C4.96582 25.9093 5.08221 25.6361 5.52759 25.5577L5.9314 25.4663C5.99078 25.4663 6.0276 25.3927 5.99078 25.344L5.73662 25.0494C5.52759 24.8523 5.51571 24.4283 5.76037 24.1848C6.00266 23.9401 6.47654 23.9781 6.72001 24.2204L7.43855 24.876C7.54544 24.9865 7.61551 25.0494 7.75447 25.0494C7.82692 25.0494 7.92074 24.9888 7.92074 24.9033V23.5019C7.92074 22.5161 8.76755 21.7489 9.75331 21.7489H10.2759C9.95997 21.4258 9.61079 21.1194 9.24262 20.8213C7.65708 19.5327 6.2972 17.9792 5.51453 16.1265H2.82208C1.6166 16.1265 1.00851 15.1977 1.00851 14.4649V13.6157C1.00959 13.5395 0.983484 13.4654 0.934876 13.4067L0.192583 12.6181C-0.0449503 12.3806 -0.07583 11.9174 0.17358 11.6917C0.411114 11.4661 0.814921 11.4542 1.04058 11.6917L1.17954 11.7594C1.22704 11.8069 1.31018 11.7713 1.31018 11.7119V11.4506C1.31018 11.1299 1.57503 10.8366 1.89451 10.8366C2.2615 10.8366 2.56198 11.1062 2.56198 11.4506V11.7594C2.56198 11.8307 2.64512 11.8544 2.69263 11.8069L2.8589 11.668C3.08456 11.4423 3.46223 11.4542 3.69977 11.668C3.94918 11.8936 3.9373 12.3485 3.69977 12.586L3.0133 13.339C2.98603 13.3672 2.96488 13.4008 2.95119 13.4376C2.9375 13.4744 2.93155 13.5136 2.93372 13.5528V13.6134C2.93372 13.7143 2.93135 13.902 2.93372 14.0195C2.93729 14.1431 3.00498 14.1585 3.05486 14.1585H4.93257C4.84355 13.6423 4.79904 13.1194 4.79955 12.5955V11.6216C4.79955 11.5631 4.80192 11.5029 4.80667 11.4411C4.82093 11.206 4.83518 10.9672 4.6404 10.8271C3.47649 9.98385 2.59761 8.47195 2.56198 6.93985C2.51923 4.95882 3.87673 3.25214 5.10953 1.70105C5.37913 1.36137 5.64279 1.03002 5.88508 0.704594C6.57749 -0.227725 8.01338 -0.241977 8.85425 0.704594C9.04032 0.913624 9.22916 1.12186 9.42077 1.32931C10.8187 2.85784 12.2498 4.41962 12.2498 6.93985C12.2498 8.54321 11.4018 10.0302 10.1785 10.8853C9.92909 11.0516 9.89346 11.3247 9.89346 11.6216V12.5361C9.92909 13.225 9.99916 13.7226 10.1583 14.1538H12.1738C12.2593 14.1538 12.2581 14.0967 12.2569 14.016V13.4946C12.2569 13.4115 12.207 13.3402 12.1477 13.2808L11.4339 12.5813C11.1963 12.3437 11.1845 11.9269 11.4339 11.7C11.6714 11.4744 12.0752 11.4269 12.3009 11.6644L12.4814 11.7475C12.5289 11.795 12.612 11.7713 12.612 11.7V11.3473C12.612 11.1335 12.8163 10.801 13.1774 10.801C13.5669 10.801 13.8246 11.0646 13.8246 11.3473L13.8686 11.7C13.8686 11.7594 13.9517 11.795 13.9992 11.7475L14.1477 11.6644C14.3733 11.4269 14.7546 11.472 14.9684 11.6644C15.1821 11.858 15.289 12.282 15.0515 12.5195L14.3603 13.3153L14.3484 13.3307C14.3009 13.3901 14.2308 13.4756 14.2308 13.5516V14.4139C14.2308 15.3996 13.447 16.1669 12.3401 16.1669H11.7759L12.0598 16.4258C13.0028 17.2892 13.9577 18.1621 14.7712 19.1883L14.7724 19.1099C14.7724 18.1479 15.9494 18.0006 16.9114 18.0006H17.8081C17.8912 18.0006 17.947 17.9175 17.947 17.8462V17.5778C17.947 17.5778 17.9542 17.2571 17.9185 17.2215L17.2 16.3581C16.9708 16.1288 16.9862 15.7702 17.2237 15.5326C17.4613 15.2951 17.738 15.3367 17.9185 15.4162L18.2535 15.592C18.301 15.6276 18.3722 15.592 18.3722 15.5326V15.2143C18.3722 14.8818 18.6691 14.6205 19.0017 14.6205C19.3342 14.6205 19.6264 14.8818 19.6264 15.2143V15.5041C19.6264 15.5635 19.6977 15.5991 19.7452 15.5635L20.016 15.4162C20.1597 15.3284 20.4981 15.2666 20.7345 15.5041C20.972 15.7417 20.9673 16.079 20.7678 16.3581L20.4613 16.7334L20.2297 17.0398C20.206 17.0635 20.1822 17.111 20.1822 17.1467V18.1835C20.1822 19.5826 19.0967 20.218 18.1347 20.218H17.0539C16.9708 20.218 16.9114 20.3451 16.9114 20.4163L16.9209 24.5257C16.9541 24.8875 16.9712 25.2656 16.972 25.6599C16.972 27.1658 17.7071 28.7193 19.5053 28.6706C20.7879 28.635 21.5279 27.7241 21.5279 25.6599L21.6989 11.5504C21.6989 11.2178 21.9245 10.9209 22.2571 10.8734" fill="#414141"/>
</svg>
